<svg width="28" height="28" viewBox="0 0 28 28" fill="none" xmlns="http://www.w3.org/2000/svg">
<g clip-path="url(#clip0_47:102)">
<path d="M27.3813 11.9C26.3901 11.1188 24.5393 11.7852 23.0973 13.3868C21.7505 13.0116 20.5549 13.104 19.5357 13.678C17.5841 14.7784 16.8449 17.3096 16.5705 19.2332C16.5285 19.53 16.4893 19.8324 16.4473 20.1348C16.0105 23.464 15.5961 26.6112 11.6481 26.6112C11.5837 26.6112 11.5193 26.6112 11.4521 26.6084C10.3321 26.5804 9.52567 26.2332 8.98807 25.5444C7.99687 24.2732 8.16767 22.1956 8.29367 21.3332C8.68567 21.1568 8.96287 20.7704 8.97687 20.314L9.03567 18.6088L11.1273 17.9872C11.3877 17.9088 11.5893 17.7436 11.7349 17.5392C12.1101 17.6232 12.5777 17.6036 12.9081 17.3964C13.4877 17.0352 14.3333 16.3408 15.3861 15.0276C16.5369 13.5912 16.8197 12.4348 16.8477 11.6844C16.8617 11.1496 16.4893 10.6064 16.2121 10.4552C15.9349 10.304 15.8845 10.5868 15.9377 11.1188C16.0161 11.9196 15.8901 13.1376 14.8569 14.462C14.8373 14.4844 14.8205 14.5012 14.8037 14.5236L14.8121 14.4648C15.0585 14.084 15.2713 13.6836 15.4337 13.2552C17.1137 8.80595 13.4821 3.61475 13.3253 3.39635C13.2917 3.34875 13.2469 3.31795 13.2021 3.28155C13.3057 3.04355 13.2805 2.82795 13.1069 2.71595C12.8353 2.53955 12.4097 2.01035 12.1633 1.53435L11.7265 0.699954C11.4829 0.226754 10.9677 0.142754 10.5813 0.512354L9.49767 1.56515C9.10847 1.93475 9.18407 2.43595 9.65727 2.68515L10.4217 3.07715C10.8949 3.32635 11.4129 3.77435 11.5809 4.07955C11.7069 4.30635 11.9981 4.33995 12.2977 4.18595C12.6057 4.63395 15.5961 9.17275 14.2241 12.8044C14.1681 12.9528 14.0813 13.09 14.0085 13.2328L14.0001 13.2356C13.9161 13.216 13.8349 13.1852 13.7481 13.1852C13.5325 13.1852 13.3309 13.2496 13.1629 13.356L13.4177 13.5996C13.2637 13.7872 13.1601 14.0168 13.1601 14.2772C13.1601 14.3416 13.1741 14.4032 13.1853 14.4648C12.7037 14.9912 12.1017 15.4616 11.3737 15.862C11.1049 15.7108 10.7801 15.6632 10.4637 15.7584L7.91567 16.5144L5.18847 15.652C4.87767 15.554 4.55287 15.596 4.28687 15.7416C2.98767 14.9716 2.10287 13.9888 1.65207 12.8044C0.215668 8.99915 3.57287 4.19435 3.60647 4.14675C3.60927 4.13835 3.60927 4.12995 3.61767 4.12155C3.61767 4.12155 3.69607 4.19715 3.79407 4.28395C3.89207 4.37635 4.10487 4.20275 4.27287 3.89755C4.43807 3.58955 4.96167 3.14155 5.43487 2.89515L6.19647 2.50035C6.67247 2.25395 6.74527 1.75275 6.35887 1.38035L5.27247 0.330354C4.88607 -0.0420462 4.37647 0.0419538 4.12727 0.517954L3.69327 1.35235C3.44407 1.82835 3.02127 2.35475 2.74967 2.53395C2.47247 2.70755 2.35207 2.94555 2.47247 3.05755L2.69367 3.26475C2.64047 3.30115 2.59287 3.34035 2.55087 3.39635C2.39407 3.61475 -1.23753 8.80595 0.442468 13.2552C1.00807 14.7448 2.09447 15.9572 3.68487 16.8812C3.72687 17.3264 4.03207 17.724 4.48567 17.8696L6.71167 18.5724L6.65287 20.2328C6.64447 20.5772 6.78727 20.8908 7.01687 21.1148C6.86287 22.1424 6.65847 24.6568 7.96607 26.334C8.74727 27.3364 9.90927 27.8628 11.4213 27.8992C11.5025 27.9048 11.5809 27.9048 11.6593 27.9048C16.7301 27.9048 17.2845 23.6964 17.7297 20.3056C17.7689 20.0088 17.8081 19.712 17.8501 19.418C18.1805 17.1024 19.0037 15.4644 20.1713 14.8064C20.7565 14.4732 21.4593 14.3808 22.2601 14.5208C21.2549 16.1812 21.1289 17.9144 22.0445 18.6424C23.1057 19.4824 25.1609 18.6536 26.6337 16.7916C28.1065 14.9296 28.4397 12.74 27.3813 11.9ZM14.6189 14.7448C14.5321 14.8484 14.4453 14.9604 14.3613 15.0556C14.4453 14.9492 14.5293 14.8428 14.6077 14.7336L14.6189 14.7448ZM24.7409 15.2516C24.1893 15.9516 23.4193 16.2624 23.0217 15.946C22.7305 15.7164 22.7221 15.2152 22.9517 14.6888C23.1617 14.756 23.3745 14.8288 23.5929 14.9212C23.9261 15.0612 24.3013 14.91 24.4413 14.5796C24.5813 14.252 24.4273 13.8712 24.0969 13.7312C23.9989 13.6892 23.9065 13.6584 23.8085 13.6248C24.2593 13.2944 24.7325 13.1936 25.0153 13.4204C25.4157 13.7368 25.2897 14.5572 24.7409 15.2516Z" fill="#888888" fill-opacity="0.75"/>
</g>
<defs>
<clipPath id="clip0_47:102">
<rect width="28" height="28" fill="white"/>
</clipPath>
</defs>
</svg>
