<svg width="28" height="28" viewBox="0 0 28 28" fill="none" xmlns="http://www.w3.org/2000/svg">
<path d="M24.9695 26.7541C24.8575 25.6817 24.8295 24.6009 24.7231 23.5257C24.5635 21.9157 24.3339 20.3141 23.8579 18.7601C23.6003 17.9285 23.2083 17.2061 22.4271 16.7469C21.6795 16.3073 20.8647 16.0469 20.0471 15.7921C19.7615 15.7025 19.8119 15.9041 19.8287 16.0497C19.9043 16.7525 19.8399 17.4469 19.6943 18.1329C19.6467 18.3541 19.7223 18.4549 19.9127 18.5641C20.7191 19.0149 21.1783 19.7037 21.2287 20.6361C21.2791 21.5965 21.0831 22.5401 21.0243 23.4921C20.9851 24.1389 20.9151 24.7885 20.6435 25.3905C20.3159 26.1185 19.7503 26.4069 18.9775 26.2585C18.6835 26.2025 18.4903 26.0681 18.5379 25.7433C18.5855 25.4241 18.8067 25.3121 19.1007 25.3709C19.4703 25.4437 19.6859 25.2701 19.8371 24.9677C19.9407 24.7577 19.9967 24.5281 20.0191 24.2957C20.1283 23.2233 20.2459 22.1509 20.3327 21.0757C20.4111 20.1041 19.8903 19.3677 19.0279 19.1717C18.1375 18.9701 17.3703 19.3733 17.0035 20.2805C16.7095 21.0057 16.4687 21.7533 16.1887 22.4869C16.0291 22.9013 15.8919 23.3185 15.8079 23.7525C15.6987 24.3153 15.8107 24.5225 16.3315 24.7577C16.5807 24.8697 16.7011 25.0461 16.6143 25.3121C16.5275 25.5809 16.3315 25.6565 16.0627 25.6061C15.2955 25.4605 14.8503 24.9145 14.8643 24.1277C14.8699 23.8057 14.9175 23.4949 15.0071 23.1869C15.3375 22.0445 15.7715 20.9385 16.2139 19.8353C16.6115 18.8441 17.4039 18.2981 18.4819 18.2225C18.6919 18.2057 18.7815 18.1469 18.8207 17.9425C18.9523 17.2621 18.9719 16.5817 18.9103 15.8929C18.8823 15.5681 18.7563 15.3917 18.4175 15.3385C18.1431 15.2965 17.8687 15.2041 17.6111 15.0977C17.3535 14.9941 17.2415 15.0249 17.1519 15.3161C16.8355 16.3745 16.3931 17.3853 15.8807 18.3653C15.6343 18.8385 15.3487 19.2921 15.0323 19.8409C14.9063 19.1465 14.8111 18.5557 14.6879 17.9677C14.6319 17.7045 14.6375 17.4665 14.7523 17.2173C14.8167 17.0745 14.9875 16.9065 14.8167 16.7525C14.5451 16.5061 14.2483 16.2905 13.9599 16.0637C13.9515 16.0553 13.9123 16.0749 13.8955 16.0889C13.6155 16.3297 13.2963 16.5369 13.0779 16.8225C12.9463 16.9933 13.2011 17.2173 13.2571 17.4245C13.2683 17.4721 13.2935 17.5225 13.2879 17.5673C13.1703 18.2897 13.0471 19.0093 12.9155 19.7989C12.8231 19.6897 12.7811 19.6477 12.7531 19.6001C12.0139 18.4073 11.4119 17.1529 10.9555 15.8257C10.8631 15.5541 10.8715 15.1341 10.6391 15.0473C10.4207 14.9661 10.0931 15.1817 9.8131 15.2601C9.6675 15.3021 9.5387 15.3413 9.4827 15.5121C9.3763 15.8425 9.2251 16.1561 9.1467 16.4865C8.6315 18.6369 8.7603 20.7649 9.4239 22.8677C9.5247 23.1869 9.6451 23.3605 10.0091 23.4305C10.7119 23.5705 11.0899 24.3405 10.8491 25.0069C10.5971 25.7097 9.8383 26.0401 9.1775 25.7377C8.5111 25.4353 8.2255 24.6149 8.6119 24.0045C8.7519 23.7833 8.7351 23.6125 8.6595 23.3941C7.9483 21.3529 7.7579 19.2641 8.0855 17.1249C8.1611 16.6321 8.3263 16.1617 8.4383 15.6409C7.4611 15.9265 6.5231 16.1645 5.6775 16.6573C5.0559 17.0185 4.5743 17.4917 4.3027 18.1805C3.9779 19.0065 3.7819 19.8633 3.6167 20.7313C3.2359 22.7473 3.1183 24.7941 2.9643 26.8353C2.9223 27.3925 3.1715 27.7369 3.6139 27.9973H24.3031C24.8295 27.7481 25.0311 27.3505 24.9695 26.7541ZM9.3231 9.53414C9.5135 9.58454 9.6031 9.67694 9.6759 9.85054C10.1043 10.8753 10.6335 11.8385 11.4203 12.6393C12.0419 13.2749 12.7615 13.7509 13.6743 13.8433C14.8223 13.9609 15.7183 13.4485 16.4939 12.6729C17.2835 11.8805 17.8323 10.9285 18.2607 9.89814C18.3195 9.75814 18.3391 9.58174 18.5519 9.56214C19.3163 9.48934 19.9127 8.27974 19.7867 7.54334C19.7503 7.33334 19.6719 7.14014 19.4423 7.12614C19.1567 7.10654 19.2099 6.95534 19.2519 6.77894C19.4031 6.14614 19.4675 5.49934 19.4983 4.94494C19.5179 4.38214 19.4647 3.91454 19.3527 3.46654C19.1819 2.78894 18.8319 2.20654 18.1963 1.88174C17.8211 1.68854 17.5327 1.47574 17.4067 1.05854C17.3591 0.896143 17.1995 0.789743 17.0679 0.680543C16.5807 0.277343 16.0039 0.100943 15.4047 0.0421433C13.6099 -0.134257 11.9355 0.249343 10.4543 1.29374C9.4323 2.01054 8.7295 2.95694 8.5867 4.24494C8.4915 5.09334 8.5391 5.93334 8.6987 6.77054C8.7323 6.94974 8.8051 7.13734 8.4887 7.13174C8.3459 7.12894 8.2535 7.24934 8.2059 7.38934C7.9427 8.13974 8.5503 9.32974 9.3231 9.53414Z" fill="#888888" fill-opacity="0.75"/>
</svg>
