<svg width="28" height="28" viewBox="0 0 28 28" fill="none" xmlns="http://www.w3.org/2000/svg">
<path d="M12.8267 2.3352C12.8267 3.6232 11.7823 4.6704 10.4915 4.6704C9.20074 4.6704 8.15634 3.626 8.15634 2.3352C8.15634 1.0444 9.20634 0 10.4943 0C11.7823 0 12.8267 1.0472 12.8267 2.3352ZM19.9387 21.448C19.4879 21.2324 18.9503 21.4228 18.7347 21.8736C17.4803 24.4944 14.7923 26.1884 11.8859 26.1884C7.70274 26.1884 4.30074 22.7864 4.30074 18.6032C4.30074 16.2288 5.38154 14.0336 7.26874 12.5832C7.66634 12.278 7.73914 11.7124 7.43394 11.3148C7.13154 10.92 6.56314 10.8472 6.16834 11.1496C3.83034 12.9472 2.49194 15.6632 2.49194 18.606C2.49194 23.7832 6.70594 28 11.8859 28C15.4811 28 18.8103 25.9 20.3643 22.6548C20.5799 22.204 20.3867 21.6636 19.9387 21.448ZM25.3791 22.1452L20.5127 14.3388C20.2803 13.9636 19.8211 13.8768 19.3283 13.8964H13.2019C12.9527 13.8964 12.7511 13.8684 12.7511 13.8376L12.7567 13.7816V12.7876C12.7567 12.5384 12.7959 12.3452 12.8463 12.348C12.8743 12.3508 12.9051 12.3536 12.9387 12.3536H18.2839C18.8859 12.3536 19.3759 11.8664 19.3759 11.2616C19.3759 10.6596 18.8887 10.1696 18.2839 10.1696H12.9387C12.9051 10.1696 12.8771 10.1724 12.8463 10.178C12.7959 10.1808 12.7567 9.9876 12.7567 9.7384V7.1848C12.7567 6.2132 11.9671 5.4264 10.9983 5.4264H10.5111C9.54234 5.4264 8.75554 6.2132 8.75554 7.1848V16.0188C8.75554 16.9876 9.54234 17.7772 10.5111 17.7772H18.9251C19.1743 17.7772 19.4851 17.9452 19.6251 18.1524C20.4707 19.4292 23.1783 23.52 23.1783 23.52C23.5031 24.0436 24.2647 24.164 24.8723 23.7832C25.4799 23.4052 25.7067 22.6716 25.3791 22.1452Z" fill="#888888" fill-opacity="0.75"/>
</svg>
