<svg width="64" height="58" viewBox="0 0 64 58" fill="none" xmlns="http://www.w3.org/2000/svg">
<path d="M58.3872 12.5328H48.8384C48.224 12.5328 47.7184 12.0336 47.7184 11.4128V2.06244C47.7184 1.44164 47.2128 0.936035 46.592 0.936035H17.4016C16.7808 0.936035 16.2816 1.44164 16.2816 2.06244V11.4128C16.2816 12.0336 15.776 12.5328 15.1552 12.5328H5.6128C2.5152 12.5328 0 15.0544 0 18.152V49.9664C0 53.064 2.5088 55.5792 5.6128 55.5792H8.32V55.8672C8.32 56.5136 9.3184 57.0448 10.56 57.0448H19.6352C20.8768 57.0448 21.8752 56.5136 21.8752 55.8672V55.5792H43.0208V55.8672C43.0208 56.5136 44.032 57.0448 45.2672 57.0448H54.3424C55.5776 57.0448 56.5888 56.5136 56.5888 55.8672V55.5792H58.3872C61.4848 55.5792 64 53.0704 64 49.9664V18.1456C64 15.0544 61.4848 12.5328 58.3872 12.5328ZM25.824 7.48963C25.824 6.86883 26.3296 6.36324 26.944 6.36324H37.0496C37.6768 6.36324 38.176 6.86883 38.176 7.48963V11.4128C38.176 12.0336 37.6768 12.5328 37.0496 12.5328H34.7008V12.5008C34.7008 11.8864 34.1952 11.3808 33.5808 11.3808H30.3936C29.7728 11.3808 29.2736 11.8864 29.2736 12.5008V12.5328H26.944C26.3296 12.5328 25.824 12.0336 25.824 11.4128V7.48963ZM40.5568 36.6544C40.5568 36.9552 40.3136 37.1984 40.0064 37.1984H35.456C35.1488 37.1984 34.9056 37.4416 34.9056 37.7424V42.3056C34.9056 42.6064 34.6624 42.8496 34.3616 42.8496H30.5472C30.24 42.8496 29.9968 42.6064 29.9968 42.3056V37.7424C29.9968 37.4416 29.7536 37.1984 29.4528 37.1984H24.8896C24.5888 37.1984 24.352 36.9552 24.352 36.6544V32.8336C24.352 32.5392 24.5952 32.2896 24.8896 32.2896H29.4528C29.7536 32.2896 29.9968 32.0528 29.9968 31.7456V27.1888C29.9968 26.888 30.24 26.6448 30.5472 26.6448H34.3616C34.6624 26.6448 34.9056 26.888 34.9056 27.1888V31.7456C34.9056 32.0528 35.1488 32.2896 35.456 32.2896H40.0064C40.3136 32.2896 40.5568 32.5392 40.5568 32.8336V36.6544Z" fill="#4F4DAB" fill-opacity="0.75"/>
</svg>
