<svg width="148" height="148" viewBox="0 0 148 148" fill="none" xmlns="http://www.w3.org/2000/svg">
<path d="M60.31 58.789C73.933 58.789 84.9766 47.7454 84.9766 34.1224C84.9766 20.4993 73.933 9.45569 60.31 9.45569C46.687 9.45569 35.6433 20.4993 35.6433 34.1224C35.6433 47.7454 46.687 58.789 60.31 58.789Z" fill="#888888" fill-opacity="0.75"/>
<path d="M67.5867 130.816C66.2281 129.472 65.3416 127.724 65.0599 125.834C64.7783 123.944 65.1167 122.014 66.0245 120.332L68.2034 116.221L63.7222 114.864C61.8949 114.293 60.304 113.14 59.1911 111.582C58.0782 110.024 57.5039 108.145 57.5556 106.231V97.8033C57.5521 95.8977 58.1618 94.0415 59.2945 92.5091C60.4272 90.9766 62.0228 89.8491 63.8456 89.2933L68.3267 87.9367L66.1889 83.8256C65.3077 82.1671 64.9724 80.2728 65.2308 78.4126C65.4892 76.5524 66.328 74.8212 67.6278 73.4656C64.465 73.0509 61.2798 72.8313 58.09 72.8078C48.6687 72.586 39.3145 74.4459 30.6945 78.2549C22.0746 82.0638 14.4014 87.728 8.22223 94.8433V126.704C8.22223 127.795 8.65536 128.84 9.42635 129.611C10.1973 130.382 11.243 130.816 12.3333 130.816H67.5867Z" fill="#888888" fill-opacity="0.75"/>
<path d="M138.544 96.4468L130.322 93.9801C129.753 91.9497 128.952 89.991 127.938 88.1423L132.049 80.4957C132.208 80.2118 132.266 79.8826 132.214 79.5615C132.161 79.2405 132.002 78.9466 131.761 78.7279L125.8 72.7257C125.57 72.5022 125.278 72.3548 124.961 72.3033C124.645 72.2518 124.321 72.2988 124.032 72.4379L116.427 76.549C114.555 75.532 112.585 74.7057 110.548 74.0823L108.04 65.8601C107.93 65.5569 107.728 65.2954 107.463 65.1113C107.198 64.9273 106.883 64.8298 106.56 64.8323H98.0089C97.6884 64.8413 97.3783 64.9486 97.1209 65.1399C96.8635 65.3311 96.6712 65.5969 96.57 65.9012L94.1033 74.1234C92.0266 74.7277 90.0264 75.5691 88.1422 76.6312L80.7011 72.5201C80.4118 72.3663 80.0815 72.3074 79.7569 72.3517C79.4323 72.396 79.1298 72.5412 78.8922 72.7668L72.8489 78.6868C72.6109 78.9161 72.4541 79.2167 72.4022 79.543C72.3503 79.8694 72.4061 80.2038 72.5611 80.4957L76.6722 87.9779C75.5709 89.8348 74.6749 91.806 74 93.8568L65.7778 96.3645C65.4668 96.4545 65.1938 96.6439 65.0007 96.9038C64.8077 97.1637 64.7052 97.4797 64.7089 97.8034V106.231C64.7052 106.555 64.8077 106.871 65.0007 107.131C65.1938 107.391 65.4668 107.58 65.7778 107.67L74 110.178C74.6163 112.191 75.4431 114.134 76.4667 115.975L72.3556 123.786C72.2005 124.078 72.1448 124.412 72.1967 124.738C72.2486 125.065 72.4054 125.365 72.6433 125.595L78.7689 131.556C79.0065 131.781 79.309 131.926 79.6336 131.971C79.9582 132.015 80.2885 131.956 80.5778 131.802L88.2656 127.691C90.0951 128.675 92.0246 129.461 94.0211 130.035L96.4878 138.462C96.5912 138.773 96.7898 139.044 97.0554 139.235C97.321 139.427 97.6402 139.531 97.9678 139.531H106.396C106.716 139.522 107.026 139.415 107.284 139.224C107.541 139.032 107.733 138.767 107.834 138.462L110.301 130.035C112.274 129.468 114.177 128.682 115.974 127.691L123.744 131.802C124.034 131.956 124.364 132.015 124.689 131.971C125.013 131.926 125.316 131.781 125.553 131.556L131.556 125.595C131.781 125.357 131.926 125.054 131.971 124.73C132.015 124.405 131.956 124.075 131.802 123.786L127.691 116.057C128.675 114.256 129.46 112.354 130.034 110.383L138.257 107.876C138.566 107.776 138.837 107.586 139.035 107.329C139.233 107.072 139.349 106.761 139.367 106.437V97.9268C139.377 97.6287 139.306 97.3335 139.161 97.0728C139.016 96.8121 138.803 96.5957 138.544 96.4468ZM102.243 115.851C99.5259 115.859 96.8671 115.061 94.6036 113.557C92.3401 112.053 90.5738 109.912 89.5282 107.403C88.4826 104.895 88.2048 102.133 88.73 99.4666C89.2551 96.8003 90.5596 94.3498 92.4783 92.4254C94.397 90.5009 96.8436 89.1891 99.5083 88.6559C102.173 88.1228 104.936 88.3923 107.447 89.4303C109.959 90.4684 112.106 92.2283 113.616 94.4872C115.127 96.7462 115.933 99.4026 115.933 102.12C115.933 105.755 114.492 109.241 111.926 111.815C109.36 114.389 105.878 115.84 102.243 115.851Z" fill="#888888" fill-opacity="0.75"/>
</svg>
