<svg width="148" height="148" viewBox="0 0 148 148" fill="none" xmlns="http://www.w3.org/2000/svg">
<path d="M131.981 141.415C131.389 135.746 131.241 130.034 130.679 124.35C129.835 115.84 128.621 107.375 126.105 99.1608C124.744 94.7652 122.672 90.9468 118.543 88.5196C114.591 86.196 110.284 84.8196 105.963 83.4728C104.453 82.9992 104.719 84.0648 104.808 84.8344C105.208 88.5492 104.867 92.2196 104.098 95.8456C103.846 97.0148 104.246 97.5476 105.252 98.1248C109.515 100.508 111.942 104.148 112.208 109.077C112.475 114.153 111.439 119.141 111.128 124.173C110.921 127.592 110.551 131.025 109.115 134.207C107.383 138.055 104.394 139.58 100.309 138.795C98.755 138.499 97.7338 137.789 97.9854 136.072C98.237 134.385 99.4062 133.793 100.96 134.104C102.914 134.488 104.053 133.571 104.853 131.972C105.4 130.862 105.696 129.649 105.815 128.42C106.392 122.752 107.013 117.084 107.472 111.4C107.887 106.265 105.134 102.372 100.575 101.336C95.869 100.271 91.8138 102.402 89.875 107.197C88.321 111.03 87.0482 114.982 85.5682 118.86C84.7246 121.05 83.9994 123.255 83.5554 125.549C82.9782 128.524 83.5702 129.619 86.323 130.862C87.6402 131.454 88.2766 132.387 87.8178 133.793C87.359 135.214 86.323 135.613 84.9022 135.347C80.847 134.577 78.4938 131.691 78.5678 127.532C78.5974 125.83 78.849 124.188 79.3226 122.56C81.069 116.521 83.363 110.675 85.7014 104.844C87.803 99.6048 91.9914 96.7188 97.6894 96.3192C98.7994 96.2304 99.273 95.9196 99.4802 94.8392C100.176 91.2428 100.279 87.6464 99.9538 84.0056C99.8058 82.2888 99.1398 81.3564 97.349 81.0752C95.8986 80.8532 94.4482 80.3648 93.0866 79.8024C91.725 79.2548 91.133 79.4176 90.6594 80.9568C88.987 86.5512 86.6486 91.894 83.9402 97.074C82.6378 99.5752 81.1282 101.973 79.4558 104.874C78.7898 101.203 78.2866 98.0804 77.6354 94.9724C77.3394 93.5812 77.369 92.3232 77.9758 91.006C78.3162 90.2512 79.219 89.3632 78.3162 88.5492C76.8806 87.2468 75.3118 86.1072 73.7874 84.9084C73.743 84.864 73.5358 84.9676 73.447 85.0416C71.967 86.3144 70.2798 87.4096 69.1254 88.9192C68.4298 89.822 69.7766 91.006 70.0726 92.1012C70.1318 92.3528 70.265 92.6192 70.2354 92.856C69.6138 96.6744 68.9626 100.478 68.267 104.652C67.7786 104.074 67.5566 103.852 67.4086 103.601C63.5014 97.296 60.3194 90.6656 57.907 83.6504C57.4186 82.2148 57.463 79.9948 56.2346 79.536C55.0802 79.1068 53.3486 80.2464 51.8686 80.6608C51.099 80.8828 50.4182 81.09 50.1222 81.9928C49.5598 83.7392 48.7606 85.3968 48.3462 87.1432C45.623 98.5096 46.3038 109.758 49.8114 120.872C50.3442 122.56 50.9806 123.477 52.9046 123.847C56.6194 124.587 58.6174 128.657 57.3446 132.18C56.0126 135.894 52.0018 137.641 48.509 136.042C44.9866 134.444 43.477 130.108 45.5194 126.881C46.2594 125.712 46.1706 124.809 45.771 123.655C42.0118 112.866 41.0054 101.825 42.737 90.5176C43.1366 87.9128 44.0098 85.4264 44.6018 82.6736C39.4366 84.1832 34.4786 85.4412 30.009 88.046C26.7234 89.9552 24.1778 92.4564 22.7422 96.0972C21.0254 100.463 19.9894 104.992 19.1162 109.58C17.1034 120.236 16.4818 131.055 15.6678 141.844C15.4458 144.789 16.763 146.61 19.1014 147.986H128.459C131.241 146.669 132.307 144.567 131.981 141.415ZM49.2786 50.3948C50.285 50.6612 50.7586 51.1496 51.1434 52.0672C53.4078 57.484 56.205 62.5752 60.3638 66.808C63.6494 70.1676 67.453 72.6836 72.2778 73.172C78.3458 73.7936 83.0818 71.0852 87.1814 66.9856C91.355 62.7972 94.2558 57.7652 96.5202 52.3188C96.831 51.5788 96.9346 50.6464 98.0594 50.5428C102.1 50.158 105.252 43.7644 104.586 39.872C104.394 38.762 103.979 37.7408 102.766 37.6668C101.256 37.5632 101.537 36.764 101.759 35.8316C102.559 32.4868 102.899 29.068 103.062 26.1376C103.165 23.1628 102.884 20.6912 102.292 18.3232C101.389 14.7416 99.5394 11.6632 96.1798 9.94636C94.1966 8.92516 92.6722 7.80036 92.0062 5.59516C91.7546 4.73676 90.911 4.17436 90.2154 3.59716C87.6402 1.46596 84.5914 0.533557 81.4242 0.222757C71.9374 -0.709643 63.087 1.31796 55.2578 6.83836C49.8558 10.6272 46.141 15.6296 45.3862 22.4376C44.883 26.922 45.1346 31.362 45.9782 35.7872C46.1558 36.7344 46.5406 37.726 44.8682 37.6964C44.1134 37.6816 43.625 38.318 43.3734 39.058C41.9822 43.0244 45.1938 49.3144 49.2786 50.3948Z" fill="#888888" fill-opacity="0.75"/>
</svg>
