<svg width="148" height="148" viewBox="0 0 148 148" fill="none" xmlns="http://www.w3.org/2000/svg">
<path d="M67.7991 12.3432C67.7991 19.1512 62.2787 24.6864 55.4559 24.6864C48.6331 24.6864 43.1127 19.166 43.1127 12.3432C43.1127 5.5204 48.6627 0 55.4707 0C62.2787 0 67.7991 5.5352 67.7991 12.3432ZM105.391 113.368C103.008 112.228 100.167 113.235 99.0271 115.618C92.3967 129.47 78.1887 138.424 62.8263 138.424C40.7151 138.424 22.7331 120.442 22.7331 98.3312C22.7331 85.7808 28.4459 74.1776 38.4211 66.5112C40.5227 64.898 40.9075 61.9084 39.2943 59.8068C37.6959 57.72 34.6915 57.3352 32.6047 58.9336C20.2467 68.4352 13.1723 82.7912 13.1723 98.346C13.1723 125.711 35.4463 148 62.8263 148C81.8295 148 99.4267 136.9 107.641 119.747C108.78 117.364 107.759 114.508 105.391 113.368ZM134.148 117.053L108.425 75.7908C107.197 73.8076 104.77 73.3488 102.165 73.4524H69.7823C68.4651 73.4524 67.3995 73.3044 67.3995 73.1416L67.4291 72.8456V67.5916C67.4291 66.2744 67.6363 65.2532 67.9027 65.268C68.0507 65.2828 68.2135 65.2976 68.3911 65.2976H96.6443C99.8263 65.2976 102.416 62.7224 102.416 59.5256C102.416 56.3436 99.8411 53.7536 96.6443 53.7536H68.3911C68.2135 53.7536 68.0655 53.7684 67.9027 53.798C67.6363 53.8128 67.4291 52.7916 67.4291 51.4744V37.9768C67.4291 32.8412 63.2555 28.6824 58.1347 28.6824H55.5595C50.4387 28.6824 46.2799 32.8412 46.2799 37.9768V84.6708C46.2799 89.7916 50.4387 93.9652 55.5595 93.9652H100.034C101.351 93.9652 102.994 94.8532 103.734 95.9484C108.203 102.697 122.515 124.32 122.515 124.32C124.232 127.088 128.257 127.724 131.469 125.711C134.68 123.713 135.879 119.836 134.148 117.053Z" fill="#888888" fill-opacity="0.75"/>
</svg>
