<svg width="50" height="50" viewBox="0 0 50 50" fill="none" xmlns="http://www.w3.org/2000/svg">
<g clip-path="url(#clip0_12:114)">
<path d="M14.4216 29.9639L13.0989 34.9018L8.26434 35.0041C6.81952 32.3243 6 29.2582 6 26C6 22.8493 6.76623 19.8782 8.12444 17.2621H8.12548L12.4296 18.0512L14.315 22.3294C13.9204 23.4799 13.7053 24.7149 13.7053 26C13.7055 27.3947 13.9581 28.731 14.4216 29.9639Z" fill="#FBBB00"/>
<path d="M43.6681 22.4505C43.8863 23.5999 44 24.7869 44 26C44 27.3602 43.857 28.6871 43.5846 29.967C42.6597 34.3224 40.2429 38.1255 36.8949 40.8169L36.8939 40.8158L31.4726 40.5392L30.7054 35.7495C32.9269 34.4467 34.663 32.4078 35.5775 29.967H25.4177V22.4505H35.7258H43.6681Z" fill="#518EF8"/>
<path d="M36.8938 40.8158L36.8949 40.8169C33.6388 43.434 29.5026 45 25.0001 45C17.7644 45 11.4735 40.9557 8.2644 35.0041L14.4217 29.9639C16.0262 34.2462 20.1571 37.2946 25.0001 37.2946C27.0817 37.2946 29.0319 36.7319 30.7053 35.7495L36.8938 40.8158Z" fill="#28B446"/>
<path d="M37.1277 11.3742L30.9725 16.4133C29.2406 15.3308 27.1934 14.7054 25.0001 14.7054C20.0475 14.7054 15.8393 17.8936 14.3152 22.3294L8.12555 17.2621H8.12451C11.2867 11.1654 17.6569 7 25.0001 7C29.6102 7 33.8371 8.64216 37.1277 11.3742Z" fill="#F14336"/>
</g>
<defs>
<clipPath id="clip0_12:114">
<rect width="38" height="38" fill="white" transform="translate(6 7)"/>
</clipPath>
</defs>
</svg>
