<svg width="960" height="771" viewBox="0 0 960 771" fill="none" xmlns="http://www.w3.org/2000/svg">
<g clip-path="url(#clip0_4:503)">
<path opacity="0.1" d="M68.3297 302.192H159.066V425.794H74.9642C74.7496 427.071 74.535 428.34 74.2936 429.618H159.066V529.282C158.923 529.282 158.78 529.175 158.646 529.122C156.262 528.174 153.878 527.171 151.493 526.11C150.984 525.878 150.483 525.637 149.964 525.413C147.58 524.288 145.195 523.096 142.811 521.839C141.98 521.401 141.148 520.946 140.334 520.481C127.097 513.1 115.067 503.741 104.658 492.728C104.345 492.433 104.059 492.112 103.764 491.835C102.316 490.262 100.894 488.671 99.5171 487.045C98.9985 486.447 98.4978 485.839 97.9882 485.258C96.3609 483.275 94.7872 481.219 93.2671 479.155C93.0347 478.843 92.8201 478.539 92.5965 478.262C86.3698 469.651 81.206 460.321 77.2174 450.473C77.0923 450.178 76.976 449.857 76.8598 449.58C75.6259 446.452 74.5082 443.28 73.5425 440.046C73.1312 438.696 72.7289 437.365 72.3891 435.962C72.2639 435.56 72.1656 435.149 72.0583 434.747C67.0332 414.955 66.4521 394.386 66.4521 373.915C66.4521 371.533 66.4521 369.15 66.4521 366.767C66.5236 358.41 66.6219 350.061 66.7471 341.722C66.7948 339.577 66.8395 337.424 66.8812 335.261C67.0064 329.787 67.1852 324.301 67.4177 318.802C67.4714 317.283 67.5429 315.756 67.6234 314.245C67.6591 313.37 67.7039 312.494 67.7575 311.619C67.9184 308.455 68.1092 305.313 68.3297 302.192Z" fill="#5B67CA"/>
<path opacity="0.1" d="M159.066 164.57H109.29C117.385 151.922 126.226 139.767 135.765 128.168C143.169 119.09 150.966 110.244 159.066 101.719V164.57Z" fill="#5B67CA"/>
<path opacity="0.1" d="M159.066 168.377V298.367H68.6159C68.6159 297.992 68.6695 297.608 68.7053 297.233C68.7858 296.205 68.8662 295.186 68.9556 294.159C69.0451 292.962 69.1613 291.764 69.2775 290.585C69.3938 289.405 69.51 287.976 69.6531 286.68C69.7961 285.384 69.9124 284.071 70.0554 282.775C70.1985 281.48 70.3416 280.184 70.5025 278.897C70.6634 277.611 70.8065 276.306 70.9853 275.02C71.1194 273.956 71.2536 272.884 71.4056 271.812C71.6112 270.302 71.8258 268.792 72.0493 267.29C72.0493 267.058 72.1209 266.835 72.1566 266.611C73.7908 255.623 76.0114 244.731 78.809 233.98C81.7469 222.704 85.4971 211.654 90.0304 200.919C94.8474 189.671 100.49 178.794 106.912 168.377H159.066Z" fill="#5B67CA"/>
<path opacity="0.1" d="M180.74 302.192V425.794H374.553V302.192H180.74ZM180.74 429.618V535.769C181.849 535.993 182.94 536.216 184.04 536.404C185.515 536.69 186.999 536.949 188.51 537.172L189.404 537.297C189.995 537.396 190.594 537.476 191.193 537.547C192.686 537.762 194.179 537.923 195.663 538.066C196.361 538.137 197.085 538.191 197.791 538.253L199.517 538.378C200.456 538.45 201.386 538.504 202.316 538.539C202.888 538.539 203.46 538.584 204.041 538.602C204.623 538.62 204.936 538.602 205.401 538.602H207.09C207.859 538.602 208.628 538.602 209.388 538.602H210.372C211.141 538.602 211.91 538.602 212.67 538.53H212.715C213.251 538.53 213.779 538.53 214.315 538.468C214.467 538.477 214.619 538.477 214.771 538.468C215.218 538.468 215.665 538.468 216.094 538.414C216.196 538.406 216.297 538.406 216.398 538.414C217.391 538.352 218.392 538.271 219.403 538.182C220.413 538.092 221.37 537.985 222.38 537.878L224.41 537.628C232.704 536.467 240.905 534.724 248.954 532.41C267.042 527.37 284.719 520.32 302.799 515.164C326.153 508.508 351.976 505.228 374.544 513.333V429.618H180.74ZM374.553 164.57V0.0178695C353.336 -0.215406 332.176 2.26187 311.588 7.38949C262.509 19.7113 218.437 46.4367 180.74 80.5696V164.561H190.495V168.377H180.74V298.367H374.553V168.377H230.401V164.552L374.553 164.57ZM623.551 108.984C611.409 108.555 599.338 104.722 588.412 98.7797C567.543 87.4408 550.858 69.9098 532.224 55.1308C493.508 24.3308 445.493 5.73646 396.236 1.12585V164.57H672.89L673.578 163.847L623.551 108.984ZM648.757 104.516L675.483 133.833V96.805C666.488 97.9398 658.655 100.576 648.757 104.48V104.516ZM675.483 562.128V429.618H618.491C618.347 429.055 618.187 428.483 618.008 427.911C618.178 428.483 618.33 429.055 618.482 429.618H396.236V525.44C398.346 527.004 400.429 528.657 402.495 530.319C404.724 532.142 406.938 533.985 409.138 535.85L411.355 537.681C412.419 538.575 413.501 539.469 414.574 540.317C416.726 542.051 418.893 543.766 421.075 545.464C422.165 546.322 423.262 547.165 424.365 547.993C441.829 561.331 460.25 573.369 479.479 584.011C483.789 586.415 488.144 588.729 492.525 590.989C495.44 592.491 498.376 593.962 501.332 595.404C505.767 597.566 510.238 599.651 514.744 601.658C556.291 620.295 600.224 633.082 645.288 639.651C655.29 641.122 665.337 642.284 675.429 643.136V562.111H676.323L675.483 562.128ZM396.236 168.377V298.367H675.483V168.377H396.236ZM396.236 302.174V425.794H675.483V302.192L396.236 302.174ZM697.156 96.6263V137.997L731.259 100.585C719.957 98.7201 708.589 97.4007 697.156 96.6263ZM697.156 302.192V425.794H968.75V302.192H697.156ZM967.793 571.93L968.75 429.618H697.156V644.574C714.651 645.301 732.171 645.09 749.642 643.94H749.946C758.291 643.404 766.598 642.641 774.866 641.653H775.053C819.175 636.52 862.315 625.004 903.12 607.466L967.793 571.93ZM1021.15 322.493C1020.11 320.11 1019.06 317.727 1017.97 315.345C1015.95 310.877 1013.82 306.534 1011.62 302.201H990.433V425.794H1044C1043.96 390.785 1035.09 355.044 1021.15 322.493ZM990.433 429.618V552.032C1005.52 537.583 1018.28 521.044 1027.45 502.137C1038.49 479.361 1043.54 454.717 1043.96 429.609L990.433 429.618ZM990.433 266.174V298.341H1009.64C1003.82 287.283 997.405 276.545 990.433 266.174ZM806.241 120.886C804.828 120.341 803.406 119.796 801.985 119.277C786.995 113.741 771.676 109.139 756.116 105.499L703.916 162.739L702.897 163.838L703.567 164.561H889.351C863.474 146.768 835.576 132.107 806.241 120.886ZM894.805 168.377H700.965L697.156 171.853V298.367H730.552H968.75V237.071C947.211 211.042 922.351 187.947 894.805 168.377Z" fill="#5B67CA"/>
<path opacity="0.1" d="M159.066 233.953V298.367H68.6159C68.6159 297.992 68.6695 297.608 68.7053 297.233C68.7858 296.205 68.8662 295.186 68.9556 294.159C69.0451 292.962 69.1613 291.764 69.2775 290.585C69.3938 289.405 69.51 287.976 69.6531 286.68C69.7961 285.384 69.9124 284.071 70.0554 282.775C70.1985 281.48 70.3416 280.184 70.5025 278.897C70.6634 277.611 70.8065 276.306 70.9853 275.02C71.1194 273.956 71.2536 272.884 71.4056 271.812C71.6112 270.302 71.8258 268.792 72.0493 267.29C72.0493 267.058 72.1209 266.835 72.1566 266.611C73.7908 255.624 76.0114 244.731 78.809 233.98L159.066 233.953Z" fill="#5B67CA"/>
<path opacity="0.1" d="M68.3297 302.192H159.066V425.794H74.9642C74.7496 427.071 74.535 428.34 74.2936 429.618H159.066V529.282C158.923 529.282 158.78 529.175 158.646 529.122C156.262 528.174 153.878 527.171 151.493 526.11C150.984 525.878 150.483 525.637 149.964 525.413C147.58 524.288 145.195 523.096 142.811 521.839C141.98 521.401 141.148 520.946 140.334 520.481C127.097 513.1 115.067 503.741 104.658 492.728C104.345 492.433 104.059 492.112 103.764 491.835C102.316 490.262 100.894 488.671 99.5171 487.045C98.9985 486.447 98.4978 485.839 97.9882 485.258C96.3609 483.275 94.7872 481.219 93.2671 479.155C93.0347 478.843 92.8201 478.539 92.5965 478.262C86.3698 469.651 81.206 460.321 77.2174 450.473C77.0923 450.178 76.976 449.857 76.8598 449.58C75.6259 446.452 74.5082 443.28 73.5425 440.046C73.1312 438.696 72.7289 437.365 72.3891 435.962C72.2639 435.56 72.1656 435.149 72.0583 434.747C67.0332 414.955 66.4521 394.386 66.4521 373.915C66.4521 371.533 66.4521 369.15 66.4521 366.767C66.5236 358.41 66.6219 350.061 66.7471 341.722C66.7948 339.577 66.8395 337.424 66.8812 335.261C67.0064 329.787 67.1852 324.301 67.4177 318.802C67.4714 317.283 67.5429 315.756 67.6234 314.245C67.6591 313.37 67.7039 312.494 67.7575 311.619C67.9184 308.455 68.1092 305.313 68.3297 302.192Z" fill="#5B67CA"/>
<path opacity="0.1" d="M248.963 186.998V298.367H180.731V186.998H190.459V149.291H230.392V186.998H248.963Z" fill="#5B67CA"/>
<path opacity="0.1" d="M248.954 302.183H180.731V425.785H248.954V302.183Z" fill="#5B67CA"/>
<path opacity="0.1" d="M180.74 429.618H248.963V532.374C240.915 534.689 232.713 536.43 224.419 537.583C223.739 537.682 223.069 537.762 222.389 537.833C221.388 537.95 220.395 538.057 219.403 538.146L216.407 538.387H216.103L214.78 538.459H214.324C213.787 538.459 213.26 538.521 212.723 538.53H212.679C211.91 538.53 211.15 538.584 210.381 538.602H209.397C208.637 538.602 207.877 538.602 207.099 538.602H205.418H204.05C203.469 538.602 202.897 538.602 202.316 538.53C201.398 538.495 200.468 538.441 199.526 538.37L197.8 538.244C197.085 538.191 196.37 538.119 195.663 538.048C194.161 537.917 192.671 537.747 191.193 537.539L189.404 537.288L188.51 537.163C187.017 536.94 185.533 536.69 184.04 536.404C182.931 536.207 181.84 535.984 180.74 535.752V429.618Z" fill="#5B67CA"/>
<path opacity="0.1" d="M675.474 173.845H619.215V298.358H675.474V173.845Z" fill="#5B67CA"/>
<path opacity="0.1" d="M675.483 302.183V425.794H396.236V372.477H544.975V403.929H619.215V302.183H675.483Z" fill="#5B67CA"/>
<path opacity="0.1" d="M676.368 562.155C676.073 562.155 675.778 562.155 675.474 562.102V643.19C665.394 642.362 655.35 641.203 645.341 639.714C600.262 633.146 556.312 620.367 514.744 601.739C502.745 596.33 490.99 590.436 479.479 584.056C460.257 573.409 441.839 561.371 424.374 548.038C419.975 544.678 415.641 541.244 411.373 537.735C408.414 535.287 405.481 532.785 402.495 530.364C400.438 528.693 398.355 527.04 396.236 525.467V429.618H618.482C618.321 429.046 618.178 428.483 618.017 427.911C618.187 428.483 618.347 429.046 618.49 429.618H675.483V562.093C675.778 562.102 676.073 562.129 676.368 562.155Z" fill="#5B67CA"/>
<path opacity="0.1" d="M822.21 164.57H785.551V153.187H801.976V119.277C803.4 119.801 804.819 120.338 806.232 120.886V153.187H822.201L822.21 164.57Z" fill="#5B67CA"/>
<path opacity="0.1" d="M910.542 298.367H730.552C730.57 298.372 730.588 298.372 730.606 298.367H730.525H697.156V173.854H706.616V265.888H749.839V211.382H785.559V168.377H822.219V211.409H857.922V265.914H910.551L910.542 298.367Z" fill="#5B67CA"/>
<path opacity="0.1" d="M697.156 302.192V425.794H910.551V302.192H697.156ZM968.446 571.278L968.75 473.437H910.551V429.654H697.156V644.574C714.65 645.301 732.171 645.09 749.642 643.94H749.946C758.291 643.404 766.598 642.641 774.866 641.653H775.053C819.175 636.52 862.315 625.004 903.12 607.466" fill="#5B67CA"/>
<path opacity="0.1" d="M675.483 208.46H645.341V247.499H675.483V208.46Z" fill="#5B67CA"/>
<path opacity="0.1" d="M675.483 289.379H645.341V298.367H675.483V289.379Z" fill="#5B67CA"/>
<path opacity="0.1" d="M675.483 302.183H645.341V328.408H675.483V302.183Z" fill="#5B67CA"/>
<path opacity="0.1" d="M675.483 370.297H645.341V409.335H675.483V370.297Z" fill="#5B67CA"/>
<path opacity="0.1" d="M675.483 451.215H645.341V490.253H675.483V451.215Z" fill="#5B67CA"/>
<path opacity="0.1" d="M675.483 562.093C675.778 562.093 676.073 562.093 676.377 562.155C676.082 562.155 675.787 562.155 675.483 562.102V571.171H645.341V532.133H675.483V562.093Z" fill="#5B67CA"/>
<path opacity="0.1" d="M675.483 613.042V643.19C665.397 642.362 655.35 641.203 645.341 639.714V613.042H675.483Z" fill="#5B67CA"/>
<path opacity="0.1" d="M525.411 422.926H396.236V425.794H525.411V422.926Z" fill="#5B67CA"/>
<path opacity="0.1" d="M525.411 429.609H396.236V440.6H525.411V429.609Z" fill="#5B67CA"/>
<path opacity="0.1" d="M525.411 476.627H396.236V494.301H525.411V476.627Z" fill="#5B67CA"/>
<path opacity="0.1" d="M525.411 530.328V548.002H424.374C419.975 544.654 415.641 541.217 411.373 537.69C408.405 535.251 405.472 532.749 402.495 530.328H525.411Z" fill="#5B67CA"/>
<path opacity="0.1" d="M525.411 584.02V601.739H514.744C502.745 596.33 490.99 590.436 479.479 584.056L525.411 584.02Z" fill="#5B67CA"/>
<path opacity="0.1" d="M775.071 314.165H749.642V339.577H775.071V314.165Z" fill="#5B67CA"/>
<path opacity="0.1" d="M224.481 195.763H199.052V221.175H224.481V195.763Z" fill="#5B67CA"/>
<path opacity="0.1" d="M224.481 254.79H199.052V280.202H224.481V254.79Z" fill="#5B67CA"/>
<path opacity="0.1" d="M224.481 313.817H199.052V339.229H224.481V313.817Z" fill="#5B67CA"/>
<path opacity="0.1" d="M224.481 372.834H199.052V398.246H224.481V372.834Z" fill="#5B67CA"/>
<path opacity="0.1" d="M224.481 431.861H199.052V457.273H224.481V431.861Z" fill="#5B67CA"/>
<path opacity="0.1" d="M224.481 490.887H199.052V516.299H224.481V490.887Z" fill="#5B67CA"/>
<path opacity="0.1" d="M872.147 314.165H846.718V339.577H872.147V314.165Z" fill="#5B67CA"/>
<path opacity="0.1" d="M775.071 376.846H749.642V402.258H775.071V376.846Z" fill="#5B67CA"/>
<path opacity="0.1" d="M872.147 376.846H846.718V402.258H872.147V376.846Z" fill="#5B67CA"/>
<path opacity="0.1" d="M775.071 439.518H749.642V464.93H775.071V439.518Z" fill="#5B67CA"/>
<path opacity="0.1" d="M872.147 439.518H846.718V464.93H872.147V439.518Z" fill="#5B67CA"/>
<path opacity="0.1" d="M775.071 502.199H749.642V527.611H775.071V502.199Z" fill="#5B67CA"/>
<path opacity="0.1" d="M872.147 502.199H846.718V527.611H872.147V502.199Z" fill="#5B67CA"/>
<path opacity="0.1" d="M775.071 564.881H749.642V590.293H775.071V564.881Z" fill="#5B67CA"/>
<path opacity="0.1" d="M872.147 564.881H846.718V590.293H872.147V564.881Z" fill="#5B67CA"/>
<path opacity="0.1" d="M749.642 643.94V627.553H775.062V641.608L749.642 643.94Z" fill="#5B67CA"/>
<path opacity="0.1" d="M72.0493 266.585V281.122H159.066V266.585H72.0493ZM80.7135 280.211H73.5604V267.505H80.7135V280.211ZM89.3777 280.211H82.2246V267.505H89.3777V280.211ZM98.0239 280.211H90.8709V267.505H98.0239V280.211ZM106.688 280.211H99.535V267.505H106.688V280.211ZM115.343 280.211H108.19V267.505H115.343V280.211ZM124.007 280.211H116.854V267.505H124.007V280.211ZM132.672 280.211H125.519V267.505H132.672V280.211ZM141.327 280.211H134.174V267.505H141.327V280.211ZM149.982 280.211H142.829V267.505H149.982V280.211ZM158.646 280.211H151.493V267.505H158.646V280.211Z" fill="#5B67CA"/>
<path opacity="0.1" d="M72.0493 308.902V323.44H159.066V308.902H72.0493ZM80.7135 322.528H73.5604V309.822H80.7135V322.528ZM89.3777 322.528H82.2246V309.822H89.3777V322.528ZM98.0239 322.528H90.8709V309.822H98.0239V322.528ZM106.688 322.528H99.535V309.822H106.688V322.528ZM115.343 322.528H108.19V309.822H115.343V322.528ZM124.007 322.528H116.854V309.822H124.007V322.528ZM132.672 322.528H125.519V309.822H132.672V322.528ZM141.327 322.528H134.174V309.822H141.327V322.528ZM149.982 322.528H142.829V309.822H149.982V322.528ZM158.646 322.528H151.493V309.822H158.646V322.528Z" fill="#5B67CA"/>
<path opacity="0.1" d="M72.0493 351.229V365.757H159.066V351.229H72.0493ZM80.7135 364.837H73.5604V352.131H80.7135V364.837ZM89.3777 364.837H82.2246V352.131H89.3777V364.837ZM98.0239 364.837H90.8709V352.131H98.0239V364.837ZM106.688 364.837H99.535V352.131H106.688V364.837ZM115.343 364.837H108.19V352.131H115.343V364.837ZM124.007 364.837H116.854V352.131H124.007V364.837ZM132.672 364.837H125.519V352.131H132.672V364.837ZM141.327 364.837H134.174V352.131H141.327V364.837ZM149.982 364.837H142.829V352.131H149.982V364.837ZM158.646 364.837H151.493V352.131H158.646V364.837Z" fill="#5B67CA"/>
<path opacity="0.1" d="M72.0493 393.546V408.075H159.066V393.546H72.0493ZM80.7135 407.164H73.5604V394.44H80.7135V407.164ZM89.3777 407.164H82.2246V394.44H89.3777V407.164ZM98.0239 407.164H90.8709V394.44H98.0239V407.164ZM106.688 407.164H99.535V394.44H106.688V407.164ZM115.343 407.164H108.19V394.44H115.343V407.164ZM124.007 407.164H116.854V394.44H124.007V407.164ZM132.672 407.164H125.519V394.44H132.672V407.164ZM141.327 407.164H134.174V394.44H141.327V407.164ZM149.982 407.164H142.829V394.44H149.982V407.164ZM158.646 407.164H151.493V394.44H158.646V407.164Z" fill="#5B67CA"/>
<path opacity="0.1" d="M72.4696 435.846C72.8093 437.222 73.2117 438.58 73.623 439.929V436.766H80.7761V449.463H76.9402C77.0475 449.767 77.1638 450.08 77.289 450.357H159.102V435.846H72.4696ZM89.4581 449.463H82.3051V436.766H89.4581V449.463ZM98.1044 449.463H90.9513V436.766H98.1044V449.463ZM106.769 449.463H99.6155V436.766H106.769V449.463ZM115.424 449.463H108.271V436.766H115.424V449.463ZM124.088 449.463H116.935V436.766H124.088V449.463ZM132.752 449.463H125.599V436.766H132.752V449.463ZM141.407 449.463H134.254V436.766H141.407V449.463ZM150.063 449.463H142.909V436.766H150.063V449.463ZM158.727 449.463H151.574V436.766H158.727V449.463Z" fill="#5B67CA"/>
<path opacity="0.1" d="M92.6234 478.164C92.8558 478.449 93.0704 478.771 93.294 479.057H98.0239V485.16L99.5529 486.947V479.021H106.706V491.835H103.764C104.05 492.129 104.328 492.442 104.658 492.728H159.049V478.164H92.6234ZM115.388 491.835H108.235V479.075H115.388V491.835ZM124.052 491.835H116.899V479.075H124.052V491.835ZM132.716 491.835H125.563V479.075H132.716V491.835ZM141.372 491.835H134.218V479.075H141.372V491.835ZM150.027 491.835H142.874V479.075H150.027V491.835ZM158.691 491.835H151.538V479.075H158.691V491.835Z" fill="#5B67CA"/>
<path opacity="0.1" d="M140.361 520.481C141.184 520.946 142.015 521.375 142.847 521.83V521.384H150V525.413C150.519 525.637 151.01 525.878 151.52 526.11V521.384H158.673V529.122C158.809 529.183 158.95 529.234 159.093 529.273V520.481H140.361Z" fill="#5B67CA"/>
<path opacity="0.1" d="M675.474 562.093H676.368H675.474ZM618.008 427.911C618.178 428.483 618.33 429.055 618.482 429.618C618.347 429.055 618.186 428.483 618.008 427.911ZM190.495 164.57V168.377H230.436V164.552L190.495 164.57ZM675.483 562.093H676.377H675.483ZM618.008 427.911C618.178 428.483 618.33 429.055 618.482 429.618C618.347 429.055 618.186 428.483 618.008 427.911ZM675.474 562.093H676.368H675.474ZM618.008 427.911C618.178 428.483 618.33 429.055 618.482 429.618C618.347 429.055 618.186 428.483 618.008 427.911Z" fill="#5B67CA"/>
<path opacity="0.1" d="M786.328 771C834.446 771 873.453 764.739 873.453 757.016C873.453 749.293 834.446 743.033 786.328 743.033C738.211 743.033 699.204 749.293 699.204 757.016C699.204 764.739 738.211 771 786.328 771Z" fill="#5B67CA"/>
<path opacity="0.1" d="M393.392 757.016C441.51 757.016 480.517 750.756 480.517 743.033C480.517 735.31 441.51 729.049 393.392 729.049C345.275 729.049 306.268 735.31 306.268 743.033C306.268 750.756 345.275 757.016 393.392 757.016Z" fill="#5B67CA"/>
<path d="M493.696 373.272C493.675 373.183 493.628 373.103 493.562 373.04C492.23 371.726 475.241 347.717 475.241 347.717C475.241 347.717 474.347 345.036 472.899 341.552C473.363 340.951 473.712 340.269 473.927 339.541C474.005 339.233 474.062 338.919 474.097 338.603C474.097 338.505 474.168 338.424 474.195 338.326C474.506 337.114 474.475 335.84 474.106 334.645C474.006 334.951 473.884 335.25 473.739 335.538C473.403 334.497 472.953 333.497 472.398 332.554C470.145 328.676 466.926 325.406 464.556 321.626C460.968 315.754 459.542 308.814 460.524 302.004C460.524 302.353 460.524 302.71 460.524 303.058C460.613 301.708 460.793 300.365 461.06 299.038C461.434 297.527 461.933 296.051 462.553 294.624C464.682 289.754 468.124 285.51 470.216 280.622C470.918 278.973 471.452 277.258 471.808 275.502C472.545 272.569 472.814 269.539 472.604 266.522C472.604 267.237 472.487 267.952 472.38 268.658C472.154 261.405 469.223 254.499 464.163 249.295C456.858 241.959 446.37 239.109 436.337 237.607C432.122 237.116 428.096 235.58 424.624 233.14C420.771 230.647 415.79 230.048 411.284 230.593C406.104 231.153 401.292 233.531 397.702 237.304C392.936 242.54 390.871 249.956 385.309 254.37C381.938 257.051 377.664 258.302 373.739 260.124C369.814 261.947 366.103 264.592 364.843 268.506C364.843 268.506 364.843 268.452 364.843 268.425V268.649L364.789 268.792C363.483 273.42 366.005 278.129 367.319 282.749C368.687 287.529 368.777 292.577 368.848 297.519C368.947 303.559 369.036 309.608 368.938 315.657C368.893 318.034 368.812 320.438 368.634 322.805C366.517 323.445 364.462 324.27 362.491 325.272C360.488 326.576 352.995 334.663 352.995 334.663L338.34 390.615L338.537 390.839L338.34 391.598L339.083 391.429C341.157 393.662 347.353 400.024 354.041 403.992L354.667 414.964C354.667 414.964 355.418 425.972 365.549 430.521C365.781 434.336 366.506 449.83 363.153 455.968C360.831 460.453 359.739 465.472 359.987 470.515C359.987 470.515 361.159 479.825 359.826 484.722C359.048 487.994 358.99 491.397 359.657 494.694C359.657 494.694 359.657 495.775 359.657 497.634C359.657 507.543 359.773 539.299 359.657 542.891C359.487 547.135 359.657 609.906 359.657 609.906C359.657 609.906 358.825 641.277 356.16 649.775C353.496 658.272 354.167 686.41 354.167 686.41C354.167 686.41 352.495 719.926 358.405 726.538C358.405 726.833 358.351 727.137 358.342 727.431C358.342 727.565 358.342 727.717 358.342 727.851C358.271 730.398 358.762 733.105 360.953 733.936C365.424 735.652 371.334 740.799 372.452 742.273C373.569 743.747 380.07 747.42 388.546 746.437C393.856 745.84 399.2 745.596 404.542 745.704C404.542 745.704 407.886 745.097 406.804 740.942C406.107 738.35 403.496 734.365 401.636 731.747C401.976 731.837 402.307 731.908 402.62 731.971L402.942 732.033H403.192C403.329 732.041 403.466 732.041 403.603 732.033H403.782C403.949 732.047 404.116 732.047 404.283 732.033C406.527 731.819 414.896 735.715 416.389 738.288C417.883 740.861 423.149 742.818 427.119 743.31C429.479 743.595 435.434 743.113 440.433 742.47C442.95 742.21 445.443 741.756 447.89 741.111C449.07 740.665 449.32 739.235 448.981 737.627C448.579 735.584 447.487 733.741 445.887 732.408C444.438 731.381 442.525 728.674 441.112 726.458L440.737 725.859C443.231 723.482 447.738 715.708 449.106 714.1C450.769 712.143 446.423 640.58 446.423 640.58V604.705L453.085 570.751L457.743 552.782L461.74 525.655C461.74 525.655 468.732 493.97 466.577 490.861C466.577 490.798 464.789 458.175 462.911 450.339C462.097 446.845 462.303 438.982 462.786 431.334C463.291 430.833 463.642 430.199 463.801 429.506C463.959 428.813 463.917 428.09 463.68 427.42C463.547 426.962 463.373 426.516 463.161 426.089C463.161 425.955 463.161 425.812 463.161 425.678C467.024 423.902 471.06 422.53 475.205 421.585C481.867 420.281 480.204 416.849 480.204 416.849C480.204 416.849 481.706 413.91 482.698 412.114C483.691 410.318 482.868 394.467 482.698 393.162C482.636 392.635 482.224 389.722 481.751 386.416C483.888 384.897 486.668 383.012 489.699 381.224C495.467 377.811 494.17 374.21 493.696 373.272ZM406.786 599.809C406.786 599.809 401.788 612.55 403.791 615.812C405.794 619.073 403.46 631.18 403.46 631.18L401.788 649.149C401.788 649.149 397.13 682.478 398.793 690.314C400.098 696.462 400.581 714.824 400.733 722.481C400.619 722.526 400.508 722.58 400.402 722.642L400.179 722.758C400.948 719.747 400.626 713.653 396.808 701.394L396.486 650.758C396.486 650.758 395.896 592.267 400.518 585.727C405.141 579.186 406.777 568.079 406.777 568.079C406.777 568.079 405.776 584.1 405.123 588.345C404.471 592.589 406.786 599.809 406.786 599.809ZM397.478 725.671C397.434 725.778 397.38 725.886 397.344 725.984L397.094 725.662C397.222 725.675 397.35 725.678 397.478 725.671Z" fill="url(#paint0_linear_4:503)"/>
<path d="M448.453 745.74C445.869 746.732 431.858 748.42 427.942 747.947C424.025 747.473 418.839 745.49 417.364 742.898C415.889 740.307 407.618 736.394 405.4 736.644C404.491 736.671 403.585 736.544 402.718 736.269C401.188 735.806 399.694 735.232 398.247 734.553C398.045 733.426 398.079 732.27 398.346 731.158C398.397 730.933 398.463 730.712 398.542 730.496C399.064 729.03 400.144 727.83 401.547 727.155L401.869 727.003C402.488 726.735 403.136 726.537 403.8 726.413C410.828 725.064 439.825 727.771 439.825 727.771C439.825 727.771 440.638 729.228 441.756 731.032C443.151 733.266 445.046 735.992 446.477 737.019C448.062 738.373 449.137 740.226 449.526 742.273C449.866 743.855 449.615 745.302 448.453 745.74Z" fill="white"/>
<path opacity="0.1" d="M448.453 745.74C445.869 746.732 431.867 748.42 427.951 747.947C424.034 747.473 418.848 745.481 417.364 742.898C415.88 740.316 407.627 736.394 405.409 736.644C403.192 736.894 398.256 734.553 398.256 734.553C398.256 734.553 397.487 730.979 399.723 728.539L404.193 731.712C404.193 731.712 416.157 735.42 418.374 738.86C420.592 742.3 424.633 744.221 430.472 744.569C434.835 744.855 444.859 743.158 449.553 742.309C449.866 743.855 449.624 745.302 448.453 745.74Z" fill="#333944"/>
<path d="M405.651 750.297C400.377 750.194 395.102 750.442 389.86 751.039C381.464 752.021 375.054 748.358 373.936 746.848C372.818 745.338 367.033 740.236 362.589 738.449C360.417 737.609 359.907 734.875 360.005 732.319C360.005 732.185 360.005 732.033 360.005 731.899C360.088 730.28 360.327 728.673 360.721 727.101L395.511 726.359L398.525 730.443L398.989 731.068L400.822 733.561C400.822 733.561 401.654 734.651 402.745 736.242C404.587 738.922 407.162 742.881 407.85 745.499C408.95 749.689 405.651 750.297 405.651 750.297Z" fill="white"/>
<path opacity="0.1" d="M405.651 750.297C400.377 750.194 395.102 750.442 389.86 751.039C381.473 752.021 375.054 748.358 373.945 746.848C372.836 745.338 367.033 740.191 362.589 738.467C360.417 737.627 359.907 734.892 360.005 732.337C362.491 732.918 367.713 734.401 369.76 736.983C372.443 740.432 377.244 746.231 384.066 746.598C389.574 746.893 402.986 745.91 407.904 745.517C408.959 749.689 405.651 750.297 405.651 750.297Z" fill="#333944"/>
<path opacity="0.1" d="M401.511 727.119C401.109 730.103 399.866 730.907 398.972 731.086C398.753 731.129 398.528 731.129 398.31 731.086C398.192 731.078 398.076 731.06 397.961 731.032C397.961 731.032 366.72 737.93 360.408 732.346C360.247 732.202 360.098 732.047 359.961 731.881C360.043 730.262 360.282 728.656 360.676 727.083L395.467 726.341L398.48 730.425C399.002 728.959 400.081 727.758 401.484 727.083L401.511 727.119Z" fill="#333944"/>
<path opacity="0.1" d="M441.747 730.997C441.05 731.765 440.468 732.203 440.102 732.051C438.457 731.39 424.973 729.093 420.69 731.068C416.407 733.043 401.913 731.39 401.913 731.39C401.913 731.39 401.913 729.674 401.833 726.922C402.453 726.655 403.1 726.457 403.764 726.332C410.792 724.983 439.789 727.691 439.789 727.691C439.789 727.691 440.638 729.192 441.747 730.997Z" fill="#333944"/>
<path d="M462.151 528.88L458.199 556.169L453.603 574.254L447.022 608.44V644.628C447.022 644.628 451.296 716.629 449.651 718.595C448.006 720.56 441.756 731.756 440.111 731.104C438.466 730.452 424.982 728.146 420.699 730.112C416.416 732.078 401.922 730.443 401.922 730.443C401.922 730.443 401.591 702.502 399.946 694.612C398.301 686.722 402.906 653.188 402.906 653.188L404.551 635.112C404.551 635.112 406.858 622.942 404.882 619.654C402.906 616.366 407.841 603.57 407.841 603.57C407.841 603.57 405.544 596.324 406.205 592.053C406.867 587.782 407.841 571.671 407.841 571.671C407.841 571.671 406.205 582.858 401.636 589.426C397.067 595.993 397.648 654.85 397.648 654.85L397.97 705.781C406.205 732.748 397.97 730.112 397.97 730.112C397.97 730.112 366.729 737.019 360.417 731.426C354.104 725.832 355.91 690.627 355.91 690.627C355.91 690.627 355.257 662.356 357.886 653.814C360.515 645.271 361.346 613.703 361.346 613.703C361.346 613.703 361.177 550.575 361.346 546.313C361.472 542.739 361.346 510.742 361.346 500.743C361.346 498.884 361.346 497.785 361.346 497.785L365.12 488.421L409.826 482.828H431.214C431.214 482.828 463.403 490.387 466.729 493.648C466.8 493.703 466.861 493.769 466.908 493.845C469.063 496.999 462.151 528.88 462.151 528.88Z" fill="#5B67CA"/>
<path opacity="0.1" d="M407.868 672.22C407.868 672.22 417.704 695.89 422.344 697.534C426.985 699.178 407.868 672.22 407.868 672.22Z" fill="#333944"/>
<path opacity="0.1" d="M411.507 707.068C411.507 707.068 444.715 708.712 444.385 712.331C444.054 715.95 411.507 707.068 411.507 707.068Z" fill="#333944"/>
<path opacity="0.1" d="M367.078 697.605C368.392 698.847 392.409 701.18 390.433 703.449C388.457 705.719 369.054 710.133 369.054 710.133L367.078 697.605Z" fill="#333944"/>
<path opacity="0.1" d="M363.135 656.771C363.135 657.754 368.07 688.331 369.394 689.644C370.717 690.958 381.563 692.271 381.563 692.271L363.135 656.771Z" fill="#333944"/>
<path d="M398.945 238.832C394.233 244.094 392.194 251.555 386.704 256.005C383.369 258.686 379.149 259.964 375.268 261.786C371.388 263.609 367.543 266.388 366.389 270.516C365.102 275.162 367.587 279.907 368.893 284.553C370.243 289.361 370.324 294.382 370.404 299.413C370.493 305.498 370.592 311.583 370.484 317.668C370.324 327.148 369.537 337.066 364.503 345.099C382.68 350.88 402.012 351.666 421.075 352.408C424.738 352.669 428.418 352.577 432.064 352.131C435.222 351.502 438.347 350.712 441.425 349.763C447.511 348.154 453.782 347.352 460.077 347.378C462.822 347.378 465.62 347.547 468.267 346.832C470.914 346.118 473.462 344.286 474.177 341.641C474.812 339.264 473.882 336.736 472.666 334.6C470.449 330.704 467.301 327.452 464.923 323.61C462.495 319.551 461.055 314.98 460.718 310.263C460.381 305.547 461.156 300.817 462.983 296.455C465.093 291.55 468.491 287.279 470.565 282.364C472.69 277.088 473.255 271.313 472.193 265.725C471.131 260.137 468.487 254.971 464.574 250.841C457.359 243.46 447.005 240.601 437.097 239.082C432.926 238.589 428.946 237.053 425.527 234.614C421.727 232.112 416.801 231.505 412.348 232.059C407.211 232.634 402.453 235.038 398.945 238.832Z" fill="#3F3D56"/>
<g opacity="0.1">
<path opacity="0.1" d="M463.26 291.3C461.437 295.605 460.656 300.28 460.98 304.944C461.18 301.609 461.951 298.333 463.26 295.258C465.361 290.352 468.759 286.081 470.833 281.167C472.529 277.063 473.242 272.621 472.917 268.193C472.732 271.296 472.028 274.347 470.833 277.218C468.759 282.132 465.361 286.394 463.26 291.3Z" fill="#333944"/>
<path opacity="0.1" d="M370.672 298.198C370.726 301.7 370.78 305.212 370.788 308.715C370.788 303.889 370.744 299.073 370.672 294.257C370.601 289.262 370.511 284.205 369.161 279.389C368.267 276.333 366.944 273.232 366.479 270.15C365.683 274.528 367.945 278.969 369.161 283.338C370.511 288.11 370.601 293.203 370.672 298.198Z" fill="#333944"/>
<path opacity="0.1" d="M468.571 341.722C465.889 342.445 463.135 342.284 460.39 342.267C454.1 342.227 447.832 343.014 441.747 344.608C438.668 345.552 435.544 346.339 432.385 346.967C428.737 347.419 425.054 347.515 421.387 347.252C402.968 346.529 384.29 345.751 366.649 340.488C366.125 341.657 365.528 342.791 364.86 343.884C383.038 349.656 402.369 350.451 421.423 351.193C425.09 351.455 428.773 351.36 432.421 350.907C435.568 350.286 438.681 349.501 441.747 348.557C447.819 346.957 454.075 346.161 460.354 346.189C463.099 346.189 465.889 346.359 468.535 345.635C471.182 344.911 473.73 343.098 474.445 340.453C474.747 339.228 474.716 337.945 474.356 336.736C473.56 339.238 471.101 340.98 468.571 341.722Z" fill="#333944"/>
</g>
<path d="M442.087 331.133C441.425 332.616 438.635 345.43 437.974 346.743C437.312 348.057 433.7 369.081 433.369 370.261C433.038 371.44 409.558 365.329 409.558 365.329L395.422 353.489L380.892 339.041C380.892 339.041 380.463 326.004 391.166 321.823C391.893 321.537 392.64 321.304 393.401 321.126C406.384 318.007 405.079 278.558 405.079 278.558L431.724 290.058C431.724 290.058 426.788 313.075 426.958 317.516C427.003 319.008 428.174 319.937 429.703 320.5C432.067 321.172 434.528 321.438 436.981 321.286C436.981 321.286 442.748 329.659 442.087 331.133Z" fill="#FBBEBE"/>
<path d="M489.789 374.362L493.571 375.354C493.571 375.354 496.37 379.607 489.789 383.566C485.61 386.102 481.599 388.905 477.781 391.956L458.333 397.871L454.587 386.121L472.684 372.396L489.789 374.362Z" fill="#5B67CA"/>
<path opacity="0.1" d="M489.789 374.362L493.571 375.354C493.571 375.354 496.37 379.607 489.789 383.566C485.61 386.102 481.599 388.905 477.781 391.956L458.333 397.871L454.587 386.121L472.684 372.396L489.789 374.362Z" fill="#333944"/>
<path d="M347.863 385.71L340.299 393.108C340.299 393.108 353.943 408.888 364.44 409.871C374.937 410.854 381.706 397.871 381.706 397.871L372.621 383.574L347.863 385.71Z" fill="#5B67CA"/>
<path opacity="0.1" d="M347.863 385.71L340.299 393.108C340.299 393.108 353.943 408.888 364.44 409.871C374.937 410.854 381.706 397.871 381.706 397.871L372.621 383.574L347.863 385.71Z" fill="#333944"/>
<path opacity="0.1" d="M419.715 304.336C434.249 304.336 446.03 292.563 446.03 278.04C446.03 263.516 434.249 251.743 419.715 251.743C405.182 251.743 393.401 263.516 393.401 278.04C393.401 292.563 405.182 304.336 419.715 304.336Z" fill="#333944"/>
<path d="M419.715 302.362C434.249 302.362 446.03 290.588 446.03 276.065C446.03 261.542 434.249 249.768 419.715 249.768C405.182 249.768 393.401 261.542 393.401 276.065C393.401 290.588 405.182 302.362 419.715 302.362Z" fill="#FBBEBE"/>
<path opacity="0.1" d="M466.926 496.829C460.934 497.515 455.032 498.835 449.32 500.77C439.485 504.04 362.41 500.823 361.338 500.77C361.338 498.911 361.338 497.812 361.338 497.812L365.111 488.448L409.817 482.855H431.205C431.205 482.855 463.394 490.414 466.72 493.675C466.854 495.641 466.926 496.829 466.926 496.829Z" fill="#333944"/>
<path opacity="0.1" d="M442.087 331.133C441.425 332.616 438.635 345.43 437.974 346.743C437.312 348.057 433.7 369.081 433.369 370.261C433.038 371.44 409.558 365.329 409.558 365.329L395.422 353.489L380.892 339.041C380.892 339.041 380.463 326.004 391.166 321.823L417.739 352.354L429.703 320.5C432.067 321.172 434.528 321.438 436.981 321.286C436.981 321.286 442.748 329.659 442.087 331.133Z" fill="#333944"/>
<path d="M417.739 353.337L390.54 322.064C388.948 321.048 387.128 320.444 385.244 320.305C383.36 320.166 381.472 320.497 379.748 321.269C373.659 323.905 366.094 326.04 364.118 327.354C362.142 328.667 354.739 336.798 354.739 336.798L376.788 394.44L367.078 432.406C367.078 432.406 368.562 451.804 364.78 458.872C362.477 463.391 361.398 468.434 361.65 473.499C361.65 473.499 362.804 482.872 361.489 487.796C360.721 491.088 360.664 494.505 361.32 497.821C361.32 497.821 439.458 501.109 449.32 497.821C455.031 495.881 460.933 494.56 466.926 493.881C466.926 493.881 465.138 460.999 463.349 453.109C461.561 445.219 464.834 415.143 464.834 415.143L462.697 382.922L475.518 349.862C475.518 349.862 468.571 328.667 461.329 326.532C461.329 326.532 448.176 323.404 445.377 321.93C442.579 320.456 434.353 319.133 434.353 319.133L430.034 320.581L417.739 353.337Z" fill="#5B67CA"/>
<path opacity="0.1" d="M455.689 381.834L398.453 377.945C397.005 377.847 395.751 378.94 395.652 380.388L389.507 470.694C389.409 472.141 390.503 473.394 391.952 473.493L449.187 477.382C450.636 477.481 451.89 476.387 451.988 474.939L458.133 384.633C458.231 383.186 457.137 381.933 455.689 381.834Z" fill="#333944"/>
<path d="M457.659 379.873L400.424 375.984C398.975 375.885 397.721 376.979 397.623 378.426L391.478 468.732C391.38 470.18 392.474 471.433 393.923 471.532L451.158 475.421C452.606 475.519 453.861 474.426 453.959 472.978L460.104 382.672C460.202 381.225 459.108 379.971 457.659 379.873Z" fill="#3F3D56"/>
<path d="M455.771 386.952L401.336 383.253L395.742 465.464L450.177 469.163L455.771 386.952Z" fill="white"/>
<path opacity="0.1" d="M450.89 407.936L406.424 404.825L405.557 417.21L450.022 420.32L450.89 407.936Z" fill="#333944"/>
<path opacity="0.1" d="M449.281 457.15L442.224 456.671L441.785 463.125L448.842 463.605L449.281 457.15Z" fill="#333944"/>
<path opacity="0.1" d="M442.321 441.573L406.2 439.119L405.761 445.573L441.881 448.028L442.321 441.573Z" fill="#333944"/>
<path d="M449.033 383.878L411.423 381.322L410.748 391.244L448.358 393.8L449.033 383.878Z" fill="#3F3D56"/>
<path opacity="0.1" d="M449.033 383.878L411.423 381.322L410.748 391.244L448.358 393.8L449.033 383.878Z" fill="#333944"/>
<path opacity="0.1" d="M421.03 495.015C421.03 495.015 420.699 543.677 407.868 571.618C407.868 571.618 423.337 534.795 423.337 533.321C423.337 531.847 431.885 516.389 429.596 511.787C427.307 507.185 421.03 495.015 421.03 495.015Z" fill="#333944"/>
<path opacity="0.1" d="M421.727 269.489C421.236 265.182 422.291 260.84 424.705 257.238C424.418 260.848 425.439 264.441 427.583 267.361C429.727 270.281 432.85 272.333 436.382 273.143C436.081 272.882 435.866 272.535 435.765 272.149C435.664 271.763 435.683 271.356 435.819 270.981C437.652 273.054 439.056 275.511 441.13 277.334C443.204 279.157 446.316 280.247 448.757 278.951C452.074 277.164 452.11 272.455 451.252 268.792C449.41 260.99 445.63 253.777 440.263 247.82C438.923 246.02 437.185 244.554 435.184 243.537C433.183 242.52 430.973 241.98 428.728 241.959C423.65 241.566 418.374 242.013 413.823 244.291C411.262 245.688 408.863 247.363 406.67 249.286L394.152 259.49C392.948 260.357 391.917 261.442 391.112 262.689C390.575 263.731 390.253 264.87 390.164 266.04C389.845 269.381 390.463 272.746 391.951 275.756C393.439 278.766 395.737 281.302 398.587 283.079C398.527 280.438 399.254 277.838 400.675 275.611C402.097 273.383 404.15 271.629 406.572 270.57C406.951 270.887 407.258 271.281 407.473 271.727C407.687 272.172 407.804 272.658 407.815 273.152L410.452 268.452C410.845 267.597 411.463 266.865 412.241 266.334C413.868 265.441 415.898 266.495 417.283 267.755C418.669 269.015 420.019 270.588 421.879 270.784L421.951 263.788" fill="#333944"/>
<path d="M421.727 268.506C421.234 264.196 422.29 259.851 424.705 256.246C423.9 263.395 429.292 270.775 436.391 272.151C436.089 271.892 435.874 271.547 435.773 271.162C435.673 270.778 435.692 270.372 435.828 269.998C437.661 272.071 439.065 274.519 441.139 276.351C443.213 278.183 446.325 279.264 448.766 277.959C452.083 276.172 452.119 271.463 451.261 267.809C449.419 260.007 445.639 252.795 440.272 246.838C438.606 244.809 436.507 243.178 434.129 242.066C432.407 241.43 430.598 241.062 428.764 240.976C423.685 240.583 418.41 241.021 413.859 243.299C411.299 244.702 408.901 246.38 406.706 248.303L394.188 258.507C392.982 259.372 391.95 260.457 391.148 261.706C390.61 262.748 390.287 263.887 390.2 265.057C389.881 268.397 390.5 271.761 391.988 274.769C393.476 277.777 395.773 280.312 398.623 282.087C398.565 279.447 399.293 276.848 400.714 274.621C402.136 272.394 404.187 270.639 406.608 269.578C406.986 269.896 407.292 270.291 407.506 270.736C407.72 271.181 407.838 271.666 407.85 272.16L410.479 267.478C410.869 266.621 411.488 265.889 412.267 265.36C413.895 264.467 415.924 265.521 417.31 266.781C418.696 268.041 420.046 269.605 421.906 269.81L421.978 262.805" fill="#3F3D56"/>
<path d="M434.192 434.372C431.894 433.21 393.893 439.134 393.893 439.134C393.893 439.134 387.634 437.347 372.505 434.863C357.376 432.379 356.411 417.6 356.411 417.6L354.757 388.015L359.862 383.548L381.733 397.844C381.733 397.844 382.072 405.073 381.733 406.377C381.518 407.271 380.946 408.334 381 409.058C381.016 409.254 381.097 409.439 381.229 409.584C381.362 409.73 381.539 409.827 381.733 409.862C383.217 410.237 403.442 413.508 403.442 413.508C403.442 413.508 450.322 410.3 462.008 426.08C462.934 427.238 463.635 428.559 464.073 429.975C466.97 440.76 436.275 435.399 434.192 434.372Z" fill="#FBBEBE"/>
<path opacity="0.1" d="M464.1 430.038C462.312 430.833 461.203 431.405 461.203 431.405C461.203 431.405 444.429 430.914 435.005 427.5C425.581 424.087 414.127 424.695 414.127 424.695C414.127 424.695 374.857 417.94 380.946 409.12C380.962 409.316 381.043 409.501 381.176 409.647C381.308 409.792 381.485 409.89 381.679 409.925C383.163 410.3 403.389 413.57 403.389 413.57C403.389 413.57 450.268 410.362 461.954 426.142C462.909 427.294 463.637 428.616 464.1 430.038Z" fill="#333944"/>
<path d="M480.409 377.981C480.409 377.981 482.716 394.252 482.877 395.575C483.038 396.897 483.87 412.829 482.877 414.642C481.885 416.456 480.409 419.405 480.409 419.405C480.409 419.405 482.055 422.854 475.474 424.176C468.893 425.499 461.168 429.43 461.168 429.43C461.168 429.43 444.385 428.939 435.014 425.49C425.644 422.041 414.127 422.693 414.127 422.693C414.127 422.693 364.279 414.142 385.667 403.706C407.055 393.269 422.183 407.405 422.183 407.405L446.03 405.931C446.03 405.931 454.918 400.498 457.385 400.998C459.128 401.22 460.898 400.935 462.482 400.176L462.652 382.913L480.409 377.981Z" fill="#FBBEBE"/>
<path opacity="0.1" d="M359.487 338.04L354.712 337.79L340.245 394.082C340.245 394.082 355.865 390.133 362.598 394.082C369.331 398.032 381.679 398.845 381.679 398.845L377.074 353.972L359.487 338.04Z" fill="#333944"/>
<path d="M359.487 337.048L354.712 336.798L340.245 393.091C340.245 393.091 355.865 389.141 362.598 393.091C369.331 397.04 381.679 397.853 381.679 397.853L377.074 352.98L359.487 337.048Z" fill="#5B67CA"/>
<path opacity="0.1" d="M468.902 349.379L475.474 350.862C475.474 350.862 492.257 374.988 493.571 376.337C494.885 377.686 487.312 382.592 484.191 382.592C481.071 382.592 465.772 384.379 461.329 388.507C456.885 392.635 458.736 371.86 458.736 371.387C458.736 370.913 464.252 357.805 464.252 357.805L468.902 349.379Z" fill="#333944"/>
<path d="M468.902 348.396L475.474 349.87C475.474 349.87 492.257 374.041 493.571 375.354C494.885 376.667 487.312 381.609 484.191 381.609C481.071 381.609 465.772 383.396 461.329 387.524C456.885 391.652 458.736 370.877 458.736 370.404C458.736 369.93 464.288 356.777 464.288 356.777L468.902 348.396Z" fill="#5B67CA"/>
<g opacity="0.1">
<path opacity="0.1" d="M424.66 256.327C424.621 255.642 424.636 254.955 424.705 254.272C423.343 256.313 422.407 258.607 421.951 261.018V263.091C421.951 263.091 421.951 263.046 421.951 263.019V263.511C421.951 264.958 421.951 266.415 421.906 267.862H421.781V268.532C421.781 268.3 421.781 268.077 421.736 267.844C419.948 267.559 418.669 266.057 417.337 264.86C416.005 263.663 413.922 262.519 412.294 263.439C411.515 263.968 410.896 264.7 410.506 265.557L407.85 270.239C407.839 269.746 407.722 269.262 407.507 268.818C407.293 268.374 406.986 267.981 406.608 267.666C404.185 268.725 402.133 270.479 400.711 272.707C399.29 274.934 398.563 277.534 398.623 280.175C396.18 278.645 394.136 276.557 392.661 274.082C391.185 271.607 390.32 268.816 390.138 265.941C389.982 269.152 390.687 272.345 392.178 275.193C393.67 278.041 395.894 280.439 398.623 282.141C398.565 279.5 399.293 276.902 400.714 274.675C402.136 272.448 404.187 270.692 406.608 269.632C406.986 269.95 407.292 270.344 407.506 270.789C407.72 271.235 407.838 271.72 407.85 272.214L410.479 267.532C410.869 266.675 411.488 265.942 412.267 265.414C413.895 264.521 415.924 265.575 417.31 266.835C418.696 268.095 420.046 269.658 421.906 269.864C421.906 267.576 421.93 265.295 421.978 263.019C422.416 260.632 423.328 258.357 424.66 256.327Z" fill="#333944"/>
<path opacity="0.1" d="M421.638 265.325C421.683 264.717 421.754 264.11 421.844 263.538L421.942 261.072C421.673 262.472 421.571 263.9 421.638 265.325Z" fill="#333944"/>
<path opacity="0.1" d="M448.766 275.985C446.325 277.289 443.213 276.199 441.139 274.376C439.065 272.553 437.661 270.096 435.828 268.023C435.692 268.398 435.673 268.806 435.774 269.192C435.875 269.578 436.09 269.924 436.391 270.186C436.212 270.186 436.042 270.096 435.873 270.051C437.661 272.107 439.082 274.519 441.139 276.306C443.195 278.093 446.325 279.219 448.766 277.915C451.207 276.61 451.904 273.554 451.69 270.579C451.529 272.92 450.688 274.948 448.766 275.985Z" fill="#333944"/>
<path opacity="0.1" d="M435.819 270.034C432.829 269.219 430.159 267.511 428.168 265.138C426.177 262.765 424.959 259.84 424.678 256.756C424.168 263.77 429.462 270.802 436.391 272.151C436.096 271.895 435.884 271.557 435.782 271.18C435.68 270.802 435.693 270.403 435.819 270.034Z" fill="#333944"/>
</g>
<path d="M865.218 416.072C865.218 416.072 861.695 415.581 861.695 410.461C861.695 405.341 859.174 395.753 859.174 395.753C859.174 395.753 856.992 379.071 853.979 376.426C850.965 373.781 847.094 358.252 847.094 358.252C847.094 358.252 846.432 349.826 845.082 348.012C843.732 346.198 841.908 341.757 839.216 335.422C836.525 329.087 825.331 324.744 825.331 324.744C825.331 324.744 805.043 312.986 799.293 309.152C798.768 308.835 798.276 308.463 797.827 308.044C796.826 306.74 792.462 306.713 792.462 306.713C792.006 303.827 791.568 300.521 791.425 297.528C791.425 297.206 791.425 296.884 791.425 296.563C797.836 292.776 802.665 286.805 805.025 279.746C805.132 279.407 805.221 279.058 805.32 278.71C805.712 278.589 806.074 278.386 806.383 278.115C806.691 277.844 806.938 277.511 807.108 277.137C807.618 275.985 807.636 274.644 808.279 273.563C809.03 272.294 810.461 271.615 811.588 270.668C814.431 268.247 815.164 264.181 815.03 260.491C814.941 257.488 814.458 254.468 814.646 251.493C814.646 251.243 814.646 250.993 814.699 250.742C814.753 250.304 814.816 249.849 814.896 249.42C815.334 247.204 816.291 245.113 816.827 242.915C817.364 240.717 817.417 238.242 816.166 236.348C814.333 233.569 810.515 233.015 807.162 232.773C803.362 232.452 800.009 232.863 797.532 229.709C796.396 228.061 795.115 226.518 793.705 225.098C793.204 224.633 788.34 221.658 788.34 221.47C783.581 219.259 778.182 218.843 773.14 220.3C770.61 221.032 768.24 222.23 765.674 222.828C760.166 224.133 753.818 222.721 749.132 225.875C746.522 227.662 744.957 230.513 743.49 233.274C742.298 235.549 741.088 237.828 739.86 240.109C737.875 243.853 735.872 247.66 735.041 251.806C734.867 252.711 734.756 253.628 734.71 254.549C734.71 254.879 734.71 255.21 734.71 255.541C734.71 255.684 734.71 255.827 734.71 255.969C734.71 256.273 734.71 256.577 734.764 256.863C734.817 257.149 734.764 257.229 734.826 257.417C734.889 257.605 734.907 258.025 734.96 258.311C735.014 258.596 735.121 259.106 735.229 259.49C735.229 259.66 735.336 259.821 735.39 259.99C735.443 260.16 735.586 260.589 735.703 260.884C735.819 261.179 735.828 261.197 735.899 261.349C736.033 261.661 736.194 261.965 736.355 262.242C736.427 262.358 736.48 262.474 736.552 262.591C736.797 263.009 737.072 263.409 737.375 263.788C739.279 266.174 742.105 267.693 744.188 269.926C744.188 270.016 744.188 270.105 744.188 270.194C744.188 270.436 744.188 270.677 744.188 270.927C744.315 275.91 745.659 280.785 748.103 285.13C750.546 289.475 754.015 293.157 758.208 295.857C758.208 296.196 758.253 296.545 758.27 296.893C758.445 299.542 758.412 302.201 758.172 304.846C757.807 304.418 757.351 304.077 756.838 303.849C756.324 303.62 755.766 303.509 755.204 303.523C754.819 303.504 754.434 303.537 754.059 303.621L753.979 303.559V303.639C752.012 304.122 749.588 306.168 747.273 311.985C747.273 311.985 740.227 319.919 734.862 319.589C729.497 319.258 715.915 327.854 715.915 327.854C715.915 327.854 702.664 336.441 699.821 345.197C698.231 350.164 696.323 355.023 694.107 359.744L677.682 393.448L674.669 420.254C674.669 420.254 676.341 432.147 676.01 433.97C675.679 435.792 682.886 452.144 682.886 452.144C682.886 452.144 706.697 493.943 716.425 496.088L717.122 495.605C717.541 495.816 717.982 495.978 718.437 496.088L720.44 494.685C720.564 496.256 720.51 497.835 720.279 499.394C718.946 503.531 720.788 530.462 723.131 535.743C725.474 541.023 724.642 610.272 724.642 610.272L724.311 616.375C724.311 616.375 724.311 616.571 724.392 616.911L724.311 618.358L724.553 618.483C724.803 620.425 724.722 622.395 724.311 624.309C723.471 626.99 723.131 634.558 723.131 634.558C723.131 634.558 716.425 677.34 719.608 685.936C722.791 694.532 725.483 703.95 725.483 703.95C725.483 703.95 728.836 714.672 725.644 716.459C722.451 718.246 713.412 721.418 715.254 725.877C716.953 730.005 723.399 741.067 724.356 742.684L724.275 743.578L722.961 757.812C723.174 759.691 723.684 761.525 724.472 763.244C725.912 766.354 728.701 769.561 734.031 769.213C734.925 769.15 735.953 769.052 736.963 768.918C746.7 767.605 758.682 763.262 758.682 763.262C758.061 762.869 757.493 762.397 756.992 761.859C756.513 761.396 756.134 760.84 755.877 760.226C755.621 759.611 755.492 758.951 755.499 758.285C755.642 755.685 750.787 743.345 749.571 740.298L749.293 739.619C749.293 739.619 760.363 728.048 758.521 717.808C758.521 717.808 746.271 710.66 750.304 706.728C754.336 702.797 761.543 691.538 761.543 691.538C761.543 691.538 761.874 649.409 761.543 643.127C761.198 638.758 761.405 634.363 762.16 630.046C762.294 629.402 762.455 628.768 762.625 628.134C768.207 628.975 773.843 629.402 779.488 629.411C781.551 629.411 783.637 629.37 785.747 629.286C785.747 629.882 785.774 630.525 785.828 631.216C786.293 641.653 787.16 659.961 787.866 666.761C788.868 676.5 794.402 702.779 794.402 702.779C794.402 702.779 783.843 709.543 796.244 726.243C796.244 726.243 796.244 732.283 795.422 733.168C794.543 736.033 793.835 738.948 793.303 741.898C792.784 745.034 792.569 748.224 793.41 749.868C795.422 753.818 807.493 753.496 807.493 753.496C807.59 753.473 807.688 753.458 807.788 753.451C810.066 753.21 812.37 753.426 814.564 754.086C816.757 754.746 818.798 755.836 820.565 757.293C825.152 760.975 842.552 759.366 851.985 758.187C855.677 757.713 858.145 757.293 858.145 757.293C858.264 756.875 858.306 756.44 858.27 756.007C858.172 753.692 856.357 748.617 844.054 744.087C844.054 744.087 832.484 736.313 832.645 729.54H832.385H831.053C831.894 729.513 832.484 729.513 832.484 729.513C832.484 729.513 827.95 712.992 829.801 711.643C831.652 710.294 826.108 691.985 826.108 691.985C826.108 691.985 822.934 661.248 822.755 659.103C822.767 657.255 823.05 655.419 823.596 653.653L822.755 636.792C822.755 636.792 822.595 631.189 822.755 629.367C822.738 627.784 822.612 626.205 822.38 624.64C822.299 624.014 822.219 623.362 822.13 622.719C826.466 621.62 829.283 620.61 829.283 620.61L828.782 561.95C832.466 554.802 833.145 539.111 833.127 527.996C833.127 520.847 832.806 515.558 832.806 515.558L837.839 507.346C837.839 507.346 839.002 497.517 837.16 495.364C836.346 494.39 836.713 493.38 837.383 492.549C837.736 492.26 838.11 491.998 838.501 491.763C838.457 491.701 838.418 491.635 838.385 491.566C838.736 491.273 839.11 491.007 839.503 490.771C839.503 490.771 837.714 488.001 839.315 486.831C840.817 487.849 842.158 488.662 843.178 489.243C843.106 489.896 843.034 490.271 843.034 490.271L843.464 489.377C844.447 489.931 845.046 490.271 845.046 490.271C845.046 490.271 852.932 474.572 852.763 472.266C852.593 469.961 858.127 460.204 858.127 460.204C858.127 460.204 858.798 455.075 861.82 452.93C864.842 450.786 864.163 435.247 864.163 435.247C864.163 435.247 865.003 427.152 867.015 423.855C869.027 420.558 865.218 416.072 865.218 416.072ZM714.324 409.183L714.476 412.927C713.582 411.488 712.938 410.461 712.938 410.461L714.324 409.183Z" fill="url(#paint1_linear_4:503)"/>
<path d="M845.511 483.48L843.58 491.701C843.58 491.701 828.111 483.793 825.331 473.785C822.55 463.778 829.989 459.962 829.989 459.962L844.411 466.056L845.511 483.48Z" fill="white"/>
<path opacity="0.1" d="M845.511 483.48L843.58 491.701C843.58 491.701 828.111 483.793 825.331 473.785C822.55 463.778 829.989 459.962 829.989 459.962L844.411 466.056L845.511 483.48Z" fill="#333944"/>
<path d="M758.7 763.253C758.7 763.253 744.394 768.507 734.558 769.168C729.336 769.517 726.591 766.318 725.179 763.235C724.411 761.535 723.91 759.727 723.694 757.874L724.991 743.712L725.67 736.179L746.566 730.746L749.526 739.798L749.803 740.477C750.983 743.506 755.758 755.783 755.615 758.348C755.603 759.011 755.727 759.67 755.977 760.284C756.228 760.898 756.6 761.455 757.072 761.922C757.556 762.433 758.103 762.88 758.7 763.253Z" fill="white"/>
<path d="M856.375 756.051C856.412 756.484 856.369 756.92 856.25 757.338C856.25 757.338 825.652 762.431 819.394 757.338C817.634 755.85 815.583 754.746 813.373 754.095C811.162 753.444 808.839 753.261 806.554 753.558C806.554 753.558 794.715 753.88 792.739 749.984C791.917 748.349 792.131 745.177 792.641 742.059C793.162 739.125 793.854 736.225 794.715 733.374L795.189 732.998L798.006 730.738L830.982 729.764H831.232C831.071 736.501 842.418 744.23 842.418 744.23C854.497 748.697 856.277 753.746 856.375 756.051Z" fill="white"/>
<path opacity="0.1" d="M856.384 756.051C856.415 756.485 856.37 756.92 856.25 757.338C856.25 757.338 825.652 762.431 819.402 757.338C817.642 755.849 815.59 754.744 813.377 754.093C811.165 753.442 808.841 753.26 806.554 753.558C806.554 753.558 794.706 753.88 792.73 749.984C791.917 748.349 792.122 745.177 792.632 742.05C797.192 742.505 804.39 743.64 807.215 746.356C811.489 750.467 818.732 754.577 823.167 754.908C826.672 755.122 847.514 755.783 856.384 756.051Z" fill="#333944"/>
<path opacity="0.1" d="M758.7 763.253C758.7 763.253 744.394 768.507 734.558 769.168C729.336 769.517 726.591 766.318 725.179 763.235C728.827 764.459 733.879 765.737 736.534 764.567C739.681 763.164 750.84 762.27 757.099 761.886C757.571 762.409 758.109 762.869 758.7 763.253Z" fill="#333944"/>
<path d="M779.926 339.818C768.124 335.234 752.941 320.089 756.733 313.012C757.57 311.225 758.071 309.298 758.208 307.33C758.452 304.656 758.488 301.967 758.315 299.288C758.049 294.897 757.521 290.526 756.733 286.198C756.733 286.198 793.58 287.029 791.434 292.452C790.808 294.052 790.701 296.813 790.88 299.895C791.058 302.978 791.497 306.49 791.961 309.447C792.596 313.495 793.249 316.595 793.249 316.595C793.249 316.595 790.987 319.75 789.672 319.919C788.358 320.089 796.861 346.386 779.926 339.818Z" fill="#CF6F80"/>
<path opacity="0.1" d="M749.767 740.432L749.49 740.736C738.474 727.422 725.152 744.024 725.152 744.024L724.955 743.667L725.635 736.134L746.53 730.702L749.49 739.753L749.767 740.432Z" fill="#333944"/>
<path opacity="0.1" d="M831.25 730.702C831.25 730.702 823.202 730.541 818.911 734.33C814.619 738.118 793.875 735.143 794.769 734.33C795.03 733.917 795.189 733.448 795.234 732.962L798.05 730.702L831.026 729.728C831.151 730.353 831.25 730.702 831.25 730.702Z" fill="#333944"/>
<path d="M763.474 626.15C762.876 627.631 762.421 629.166 762.115 630.734C761.37 635.028 761.162 639.398 761.498 643.744C761.829 649.998 761.498 691.914 761.498 691.914C761.498 691.914 754.426 703.092 750.474 707.032C746.522 710.973 758.521 718.049 758.521 718.049C760.309 728.245 749.472 739.753 749.472 739.753C738.456 726.44 725.134 743.033 725.134 743.033C725.134 743.033 717.891 730.523 716.085 726.055C714.279 721.588 723.158 718.505 726.278 716.682C729.399 714.86 726.117 704.173 726.117 704.173C726.117 704.173 723.489 694.8 720.359 686.249C717.23 677.698 723.811 635.139 723.811 635.139C723.811 635.139 724.15 627.571 724.964 624.935C725.37 623.032 725.452 621.074 725.205 619.145C725.152 618.492 725.089 617.956 725.044 617.581C725 617.206 724.964 617.045 724.964 617.045L725.089 616.83L729.56 608.503C729.56 608.503 765.62 620.905 763.474 626.15Z" fill="#5B67CA"/>
<path d="M831.25 729.719C831.25 729.719 823.203 729.549 818.911 733.293C814.619 737.037 793.875 734.115 794.769 733.293C795.663 732.471 795.583 726.395 795.583 726.395C783.414 709.784 793.794 703.047 793.794 703.047C793.794 703.047 788.367 676.911 787.384 667.217C786.695 660.453 785.846 642.198 785.39 631.86C785.193 627.392 785.077 624.309 785.077 624.309L794.93 622.352L796.209 622.102L820.189 617.286C820.189 617.286 820.851 621.754 821.298 625.408C821.524 626.968 821.647 628.541 821.665 630.117C821.513 631.904 821.665 637.507 821.665 637.507L822.487 654.269C821.957 656.029 821.68 657.855 821.665 659.693C821.835 661.837 824.955 692.405 824.955 692.405C824.955 692.405 830.383 710.651 828.532 711.965C826.681 713.278 831.25 729.719 831.25 729.719Z" fill="#5B67CA"/>
<path opacity="0.1" d="M791.434 292.479C790.808 294.079 790.701 296.84 790.879 299.922C785.944 302.892 780.27 304.411 774.51 304.303C768.749 304.196 763.136 302.467 758.315 299.315C758.049 294.924 757.52 290.552 756.733 286.224C756.733 286.224 793.58 287.055 791.434 292.479Z" fill="#333944"/>
<path d="M805.66 272.75C805.757 280.857 802.627 288.671 796.96 294.472C791.292 300.273 783.55 303.587 775.438 303.684C767.325 303.781 759.506 300.654 753.701 294.99C747.896 289.326 744.58 281.59 744.483 273.483C744.483 273.232 744.483 273 744.483 272.75C744.483 264.641 747.707 256.863 753.445 251.129C759.183 245.395 766.965 242.173 775.08 242.173C783.195 242.173 790.978 245.395 796.716 251.129C802.454 256.863 805.677 264.641 805.677 272.75H805.66Z" fill="#CF6F80"/>
<path opacity="0.1" d="M779.926 339.818C768.124 335.234 752.941 320.089 756.733 313.012C757.57 311.225 758.071 309.298 758.208 307.33L774.365 320.607L784.361 328.801L791.961 309.474C792.596 313.522 793.249 316.622 793.249 316.622C793.249 316.622 790.987 319.776 789.672 319.946C788.358 320.116 796.861 346.386 779.926 339.818Z" fill="#333944"/>
<path d="M821.709 398.496L808.217 625.006L790.62 626.159L745.046 494.819L752.521 338.889L754.104 305.945L774.365 322.573L784.361 330.767L792.185 310.868L806.733 323.538L821.709 398.496Z" fill="#5B67CA"/>
<path opacity="0.1" d="M763.474 626.15C762.876 627.631 762.421 629.166 762.115 630.734C749.299 628.762 736.851 624.879 725.188 619.216L724.946 619.091L725.027 617.652V616.902L729.497 608.574C729.497 608.574 765.62 620.905 763.474 626.15Z" fill="#333944"/>
<path opacity="0.1" d="M795.225 630.769C791.952 631.329 788.651 631.707 785.336 631.904C785.139 627.437 785.023 624.354 785.023 624.354L794.93 622.352L795.225 630.769Z" fill="#333944"/>
<path opacity="0.1" d="M821.334 625.408C814.977 627.061 805.15 628.92 796.37 627.758L796.244 622.102L820.225 617.286C820.225 617.286 820.86 621.718 821.334 625.408Z" fill="#333944"/>
<path opacity="0.1" d="M796.209 628.795C759.549 635.049 725.974 617.116 725.974 617.116L726.296 611.04C726.296 611.04 727.128 542.158 724.821 536.877C722.514 531.596 720.717 504.853 722.022 500.77C723.328 496.686 717.257 435.033 717.257 435.033L716.273 410.014L680.248 395.387L696.343 361.853C698.516 357.152 700.386 352.317 701.94 347.378C704.739 338.666 717.73 330.115 717.73 330.115C717.73 330.115 731.053 321.572 736.319 321.894C741.586 322.216 748.489 314.335 748.489 314.335C753.585 301.352 758.199 307.187 758.199 307.187C758.199 307.812 758.199 307.187 757.949 309.108C756.16 323.359 786.865 368.393 787.303 369.198L790.263 440.376L793.222 530.453L796.209 628.795Z" fill="#333944"/>
<path d="M795.225 628.795C758.566 635.049 724.982 617.116 724.982 617.116L725.313 611.04C725.313 611.04 726.135 542.158 723.828 536.877C721.522 531.596 719.724 504.826 721.039 500.707C722.353 496.588 716.246 434.997 716.246 434.997L715.254 409.978L679.238 395.351L695.332 361.817C697.501 357.117 699.37 352.286 700.93 347.351C703.728 338.666 716.765 330.106 716.765 330.106C716.765 330.106 730.087 321.563 735.345 321.885C740.602 322.207 747.541 314.335 747.541 314.335C752.646 301.352 758.27 307.187 758.27 307.187C758.27 307.812 757.734 308.08 758.02 309.108C761.954 322.931 785.953 368.393 786.391 369.198L789.351 440.376L792.248 530.497L795.225 628.795Z" fill="white"/>
<path opacity="0.1" d="M785.345 371.208C781.402 369.564 760.515 345.733 760.515 345.733V340.31C759.755 338.523 755.23 339.613 751.573 340.864L753.147 307.919L754.935 309.403C758.843 323.216 784.916 370.413 785.345 371.208Z" fill="#333944"/>
<path d="M786.337 369.242C782.385 367.589 761.498 343.768 761.498 343.768V338.335C760.738 336.548 756.223 337.638 752.557 338.889L754.104 305.98L755.892 307.455C759.835 321.251 785.899 368.438 786.337 369.242Z" fill="white"/>
<path opacity="0.1" d="M725.974 488.082C726.466 488.082 751.466 485.455 751.466 485.455C751.466 485.455 766.604 515.209 765.611 522.438C764.619 529.667 762.822 536.082 756.733 534.947C750.644 533.813 723.963 535.841 723.963 535.841L725.974 488.082Z" fill="#333944"/>
<path d="M724.982 486.107C725.483 486.107 750.483 483.48 750.483 483.48C750.483 483.48 765.611 513.279 764.628 520.427C763.644 527.576 761.829 534.072 755.749 532.937C749.669 531.802 722.97 533.83 722.97 533.83L724.982 486.107Z" fill="white"/>
<path d="M743.821 472.177C743.821 472.177 766.765 484.508 767.257 488.26C767.748 492.013 755.579 486.616 752.95 485.955C751.219 485.544 749.458 485.269 747.684 485.133L730.15 485.607L743.821 472.177Z" fill="#CF6F80"/>
<path opacity="0.1" d="M778.934 372.745C780.267 372.745 781.348 371.665 781.348 370.332C781.348 369 780.267 367.92 778.934 367.92C777.601 367.92 776.52 369 776.52 370.332C776.52 371.665 777.601 372.745 778.934 372.745Z" fill="#333944"/>
<path d="M778.934 371.762C780.267 371.762 781.348 370.682 781.348 369.349C781.348 368.017 780.267 366.937 778.934 366.937C777.601 366.937 776.52 368.017 776.52 369.349C776.52 370.682 777.601 371.762 778.934 371.762Z" fill="#3F3D56"/>
<path opacity="0.1" d="M783.378 477.181C784.711 477.181 785.792 476.1 785.792 474.768C785.792 473.436 784.711 472.356 783.378 472.356C782.044 472.356 780.964 473.436 780.964 474.768C780.964 476.1 782.044 477.181 783.378 477.181Z" fill="#333944"/>
<path d="M783.378 476.189C784.711 476.189 785.792 475.109 785.792 473.776C785.792 472.444 784.711 471.364 783.378 471.364C782.044 471.364 780.964 472.444 780.964 473.776C780.964 475.109 782.044 476.189 783.378 476.189Z" fill="#3F3D56"/>
<path opacity="0.1" d="M781.348 424.963C782.681 424.963 783.762 423.883 783.762 422.55C783.762 421.218 782.681 420.138 781.348 420.138C780.015 420.138 778.934 421.218 778.934 422.55C778.934 423.883 780.015 424.963 781.348 424.963Z" fill="#333944"/>
<path d="M781.348 423.98C782.681 423.98 783.762 422.9 783.762 421.567C783.762 420.235 782.681 419.155 781.348 419.155C780.015 419.155 778.934 420.235 778.934 421.567C778.934 422.9 780.015 423.98 781.348 423.98Z" fill="#3F3D56"/>
<path d="M836.999 484.633C836.999 484.633 838.644 487.099 836.999 488.207C835.354 489.315 837.16 492.156 837.16 492.156C837.16 492.156 833.056 494.551 834.862 496.722C836.668 498.893 835.524 508.642 835.524 508.642L830.588 516.853C830.588 516.853 830.883 522.116 830.901 529.229C830.901 540.326 830.248 555.927 826.636 563.04L827.119 621.396C827.119 621.396 809.835 627.714 795.368 625.784L793.222 532.142C793.222 532.142 796.352 479.039 797.505 468.853C798.18 463.565 798.455 458.233 798.328 452.903C798.328 452.903 797.836 436.963 796.182 429.573C796.182 429.573 794.393 397.514 794.215 388.641C794.134 384.396 794.358 372.012 794.608 360.235C794.885 347.36 795.198 335.217 795.198 335.217L791.935 309.403C791.935 309.403 795.198 309.081 796.182 310.385C796.622 310.797 797.101 311.165 797.612 311.484C803.254 315.291 823.158 326.996 823.158 326.996C823.158 326.996 834.174 331.374 836.811 337.647C839.449 343.92 841.282 348.369 842.561 350.156C843.839 351.943 844.537 360.343 844.537 360.343C844.537 360.343 848.328 375.801 851.287 378.419C854.247 381.037 856.375 397.656 856.375 397.656L830.221 418.208C830.221 418.208 827.923 452.394 827.432 453.717C826.94 455.039 836.999 484.633 836.999 484.633Z" fill="white"/>
<path d="M837.992 484.633C837.992 484.633 839.628 487.099 837.992 488.207C836.355 489.315 838.144 492.156 838.144 492.156C838.144 492.156 834.039 494.551 835.846 496.722C837.652 498.893 836.507 508.642 836.507 508.642L831.59 516.853C831.59 516.853 831.885 522.116 831.911 529.229C831.911 540.326 831.259 555.927 827.646 563.04L828.138 621.396C828.138 621.396 810.855 627.714 796.387 625.784L794.25 532.142C794.25 532.142 797.371 479.039 798.533 468.853C799.209 463.565 799.481 458.233 799.347 452.903C799.347 452.903 798.855 436.963 797.21 429.573C797.21 429.573 795.422 397.514 795.234 388.641C795.154 384.396 795.377 372.012 795.627 360.235C795.905 347.36 796.218 335.217 796.218 335.217L791.908 309.054C791.908 309.054 796.218 309.054 797.21 310.385C797.646 310.802 798.126 311.17 798.641 311.484C804.274 315.291 824.177 326.996 824.177 326.996C824.177 326.996 835.166 331.374 837.848 337.647C840.531 343.92 842.319 348.369 843.598 350.156C844.876 351.943 845.574 360.343 845.574 360.343C845.574 360.343 849.365 375.801 852.325 378.419C855.284 381.037 857.421 397.656 857.421 397.656L831.268 418.208C831.268 418.208 828.97 452.394 828.469 453.717C827.968 455.039 837.992 484.633 837.992 484.633Z" fill="white"/>
<path opacity="0.1" d="M806.67 342.803L809.039 349.683L796.602 362.192C796.879 349.317 797.192 337.173 797.192 337.173L792.882 311.02C792.882 311.02 797.192 311.02 798.185 312.351C798.621 312.767 799.101 313.136 799.615 313.45L810.184 343.911L806.67 342.803Z" fill="#333944"/>
<path d="M805.66 340.828L808.029 347.699L795.601 360.209C795.869 347.333 796.191 335.19 796.191 335.19L791.872 309.027C791.872 309.027 796.191 309.027 797.174 310.359C797.613 310.772 798.092 311.14 798.605 311.458L809.236 341.945L805.66 340.828Z" fill="white"/>
<path opacity="0.1" d="M805.66 272.75C805.663 275.97 805.156 279.169 804.157 282.23C803.989 282.258 803.817 282.252 803.651 282.212C803.485 282.173 803.329 282.1 803.192 281.998C802.95 273.956 798.998 266.397 794.125 259.972C792.755 258.035 791.096 256.317 789.208 254.879C787.295 253.445 784.918 252.773 782.537 252.994C779.855 253.36 777.485 255.183 774.776 255.415C771.2 255.71 767.999 253.235 764.449 253.119C763.006 253.131 761.581 253.451 760.272 254.059C758.963 254.666 757.799 255.546 756.858 256.64C754.991 258.84 753.605 261.405 752.789 264.172C751.384 268.37 750.618 272.756 750.518 277.182C750.474 279.684 750.232 282.82 747.907 283.731C748.083 281.893 747.875 280.038 747.294 278.284C746.714 276.53 745.775 274.917 744.537 273.545L744.483 273.483C744.483 273.232 744.483 273 744.483 272.75C744.483 264.641 747.707 256.863 753.445 251.129C759.183 245.395 766.965 242.173 775.08 242.173C783.195 242.173 790.978 245.395 796.716 251.129C802.454 256.863 805.677 264.641 805.677 272.75H805.66Z" fill="#333944"/>
<path d="M787.777 224.205C783.131 222.02 777.846 221.607 772.916 223.043C770.44 223.776 768.106 224.964 765.593 225.563C760.229 226.858 753.97 225.455 749.365 228.592C746.808 230.379 745.27 233.202 743.839 235.954L740.263 242.754C738.313 246.48 736.346 250.269 735.533 254.37C734.719 258.471 735.211 263.064 737.813 266.37C739.699 268.765 742.507 270.275 744.563 272.536C745.799 273.914 746.735 275.533 747.314 277.29C747.893 279.048 748.101 280.907 747.925 282.749C750.25 281.855 750.483 278.701 750.536 276.199C750.637 271.773 751.402 267.388 752.807 263.189C753.623 260.422 755.009 257.857 756.876 255.657C757.816 254.562 758.98 253.68 760.289 253.072C761.599 252.463 763.023 252.141 764.467 252.127C768.043 252.252 771.253 254.727 774.794 254.424C777.476 254.2 779.855 252.378 782.555 252.011C784.936 251.786 787.315 252.458 789.225 253.896C791.116 255.33 792.772 257.048 794.134 258.99C799.016 265.423 802.977 272.947 803.21 281.015C804.22 281.748 805.678 280.783 806.178 279.639C806.679 278.495 806.697 277.155 807.332 276.065C808.065 274.805 809.469 274.126 810.568 273.179C813.358 270.775 814.056 266.728 813.948 263.055C813.841 259.383 813.126 255.657 813.823 252.047C814.243 249.84 815.191 247.758 815.71 245.569C816.228 243.38 816.291 240.922 815.066 239.037C813.278 236.276 809.513 235.722 806.232 235.463C802.503 235.141 799.168 235.552 796.79 232.416C795.671 230.782 794.414 229.245 793.034 227.823C792.543 227.35 787.777 224.401 787.777 224.205Z" fill="#512E4E"/>
<path opacity="0.1" d="M690.567 412.632L681.232 395.378L678.272 422.005C678.272 422.005 679.918 433.835 679.587 435.649C679.256 437.463 686.328 453.725 686.328 453.725C686.328 453.725 709.692 495.319 719.233 497.455L751.421 474.437L742.873 463.59C742.873 463.59 739.914 462.437 739.172 463.59C739.172 463.59 723.292 436.302 721.656 434.336C720.019 432.37 720.332 428.412 720.332 428.412C720.332 428.412 717.865 425.785 718.687 423.319C719.51 420.853 713.966 412.31 713.966 412.31L719.063 407.548L690.567 412.632Z" fill="#333944"/>
<path d="M681.724 393.403L679.256 395.378L676.296 422.005C676.296 422.005 677.941 433.835 677.611 435.649C677.28 437.463 684.361 453.725 684.361 453.725C684.361 453.725 707.716 495.319 717.257 497.455L749.499 474.438L740.942 463.59C740.942 463.59 737.983 462.437 737.24 463.59C737.24 463.59 721.37 436.302 719.724 434.336C718.079 432.37 718.41 428.412 718.41 428.412C718.41 428.412 715.942 425.785 716.765 423.319C717.587 420.853 711.99 412.31 711.99 412.31L717.087 407.548L681.724 393.403Z" fill="white"/>
<path opacity="0.1" d="M834.862 497.75C836.65 499.921 835.524 509.678 835.524 509.678L830.588 517.836C830.588 517.836 830.883 523.108 830.901 530.221L822.603 532.812C821.852 533.046 821.056 533.097 820.281 532.961C819.506 532.825 818.775 532.506 818.149 532.03C817.522 531.555 817.019 530.936 816.68 530.227C816.341 529.517 816.177 528.737 816.201 527.951L817.641 481.845L836.999 489.234C835.354 490.378 837.16 493.184 837.16 493.184C837.16 493.184 833.056 495.578 834.862 497.75Z" fill="#333944"/>
<path d="M835.846 496.767C837.634 498.929 836.507 508.686 836.507 508.686L831.589 516.853C831.589 516.853 831.885 522.116 831.911 529.229L823.462 531.865C822.728 532.095 821.95 532.146 821.192 532.014C820.435 531.882 819.72 531.571 819.107 531.106C818.495 530.642 818.002 530.038 817.671 529.344C817.34 528.651 817.179 527.888 817.203 527.12L818.642 480.853L837.991 488.26C836.337 489.404 838.143 492.21 838.143 492.21C838.143 492.21 834.039 494.596 835.846 496.767Z" fill="white"/>
<path d="M842.266 474.768C842.266 474.768 840.951 483.158 837.661 483.65C834.37 484.141 832.895 497.223 829.613 496.767C826.332 496.311 828.505 484.597 828.621 482.327C828.737 480.058 825.044 470.658 827.798 468.522C830.552 466.387 839.315 468.522 839.315 468.522L842.266 474.768Z" fill="#CF6F80"/>
<path opacity="0.1" d="M849.222 410.166L855.418 397.656C855.418 397.656 857.895 407.19 857.895 412.284C857.895 417.377 861.346 417.877 861.346 417.877C861.346 417.877 865.128 422.345 863.135 425.606C861.141 428.867 860.345 436.945 860.345 436.945C860.345 436.945 860.998 452.394 858.038 454.53C855.078 456.665 854.417 461.767 854.417 461.767C854.417 461.767 848.989 471.462 849.159 473.767C849.329 476.073 841.595 491.683 841.595 491.683C841.595 491.683 845.377 472.284 823.337 463.903C823.337 463.903 823.167 457.326 824.812 455.521C826.457 453.717 829.023 452.841 827.414 443.763C825.804 434.684 826.949 423.739 826.949 421.549C826.949 419.36 831.885 405.716 831.885 405.716L849.222 410.166Z" fill="#333944"/>
<path d="M851.976 395.869L857.394 397.656C857.394 397.656 859.871 407.19 859.871 412.284C859.871 417.377 863.322 417.877 863.322 417.877C863.322 417.877 867.105 422.345 865.111 425.606C863.117 428.867 862.312 436.945 862.312 436.945C862.312 436.945 862.974 452.394 860.014 454.53C857.055 456.665 856.438 461.767 856.438 461.767C856.438 461.767 851.01 471.462 851.18 473.767C851.35 476.073 843.607 491.683 843.607 491.683C843.607 491.683 847.389 472.284 825.349 463.903C825.349 463.903 825.188 457.326 826.833 455.521C828.478 453.717 831.044 452.841 829.435 443.763C827.825 434.684 828.97 423.739 828.97 421.549C828.97 419.36 833.905 405.716 833.905 405.716L851.976 395.869Z" fill="white"/>
<path opacity="0.1" d="M732.269 720.105C732.269 720.105 740.906 714.681 746.575 718.621C752.244 722.562 732.269 720.105 732.269 720.105Z" fill="#333944"/>
<path opacity="0.1" d="M799.401 703.333C799.401 703.333 807.045 702.35 813.465 709.257C819.885 716.164 799.401 703.333 799.401 703.333Z" fill="#333944"/>
<g opacity="0.1">
<path opacity="0.1" d="M810.568 271.213C809.469 272.169 808.056 272.839 807.323 274.099C806.697 275.18 806.679 276.521 806.178 277.673C805.677 278.826 804.22 279.782 803.201 279.049C802.968 271.008 799.007 263.457 794.134 257.024C792.772 255.085 791.116 253.37 789.225 251.94C787.313 250.499 784.931 249.823 782.546 250.045C779.864 250.412 777.503 252.235 774.794 252.467C771.218 252.762 768.008 250.287 764.458 250.17C763.016 250.181 761.592 250.501 760.285 251.109C758.977 251.716 757.814 252.597 756.876 253.691C755.009 255.891 753.623 258.457 752.807 261.223C751.402 265.422 750.637 269.807 750.536 274.233C750.483 276.726 750.25 279.836 747.943 280.765C747.997 281.428 747.997 282.094 747.943 282.757C750.277 281.864 750.509 278.71 750.563 276.208C750.663 271.782 751.429 267.396 752.834 263.198C753.65 260.431 755.036 257.866 756.902 255.666C757.842 254.571 759.004 253.69 760.312 253.082C761.619 252.473 763.042 252.151 764.485 252.136C768.061 252.261 771.28 254.736 774.821 254.433C777.503 254.209 779.882 252.386 782.573 252.02C784.957 251.795 787.338 252.468 789.252 253.905C791.143 255.339 792.799 257.057 794.161 258.999C799.034 265.432 802.995 272.955 803.228 281.024C804.247 281.757 805.704 280.792 806.205 279.648C806.706 278.504 806.724 277.164 807.349 276.074C808.083 274.814 809.495 274.135 810.595 273.188C813.385 270.784 814.082 266.736 813.975 263.064C813.975 262.948 813.975 262.841 813.975 262.725C813.796 265.923 812.947 269.167 810.568 271.213Z" fill="#333944"/>
<path opacity="0.1" d="M744.554 270.588C742.507 268.327 739.699 266.808 737.813 264.413C736.219 262.299 735.311 259.749 735.211 257.104C734.93 260.411 735.854 263.708 737.813 266.388C739.699 268.783 742.507 270.293 744.554 272.553C746.532 274.763 747.721 277.566 747.934 280.524C748.069 278.725 747.839 276.919 747.258 275.211C746.677 273.504 745.758 271.931 744.554 270.588Z" fill="#333944"/>
<path opacity="0.1" d="M815.71 243.603C815.182 245.792 814.243 247.874 813.814 250.081C813.556 251.574 813.463 253.09 813.537 254.602C813.566 253.748 813.659 252.897 813.814 252.056C814.243 249.849 815.182 247.767 815.71 245.578C816.013 244.37 816.113 243.119 816.005 241.878C815.947 242.46 815.848 243.036 815.71 243.603Z" fill="#333944"/>
</g>
<path opacity="0.1" d="M118.678 749.564C166.796 749.564 205.803 743.304 205.803 735.58C205.803 727.857 166.796 721.597 118.678 721.597C70.5609 721.597 31.554 727.857 31.554 735.58C31.554 743.304 70.5609 749.564 118.678 749.564Z" fill="#5B67CA"/>
<path d="M121.486 467.691H115.88V593.831H121.486V467.691Z" fill="#535461"/>
<path d="M156.724 593.456L156.366 599.139L155.874 607.18L155.669 610.522L155.168 618.564L154.953 621.906L154.462 629.947L148.802 721.15C148.56 725.074 146.83 728.758 143.964 731.451C141.098 734.144 137.312 735.644 133.378 735.643H103.988C100.043 735.645 96.2469 734.138 93.3788 731.431C90.5106 728.724 88.7879 725.023 88.564 721.087L82.9041 629.885L82.4124 621.843L82.2067 618.501L81.697 610.46L81.4914 607.118L80.9996 599.076L80.642 593.393C80.5801 592.304 80.7406 591.213 81.1139 590.188C81.4871 589.163 82.0652 588.224 82.813 587.429C83.5608 586.634 84.4626 586 85.4636 585.564C86.4646 585.129 87.5438 584.901 88.6355 584.896H148.739C149.836 584.902 150.92 585.132 151.924 585.572C152.928 586.012 153.832 586.652 154.58 587.454C155.328 588.256 155.903 589.201 156.272 590.234C156.641 591.266 156.795 592.362 156.724 593.456V593.456Z" fill="#3F3D56"/>
<path d="M156.366 599.13L155.865 607.153H81.4914L80.9907 599.13H156.366Z" fill="#9D9CB5"/>
<path d="M155.66 610.495L155.168 618.519H82.1978L81.6971 610.495H155.66Z" fill="#9D9CB5"/>
<path d="M154.953 621.87L154.462 629.885H82.9041L82.4034 621.87H154.953Z" fill="#9D9CB5"/>
<path d="M72.4696 514.977C105.123 538.584 118.723 575.505 118.723 575.505C118.723 575.505 79.3812 574.155 46.7185 550.548C14.0558 526.941 0.438126 490.047 0.438126 490.047C0.438126 490.047 39.78 491.37 72.4696 514.977Z" fill="#5B67CA"/>
<path d="M0.438126 490.047C0.438126 490.047 41.2732 512.698 54.3723 531.454C67.4714 550.209 118.687 575.522 118.687 575.522" stroke="#535461" stroke-width="2" stroke-miterlimit="10"/>
<path d="M93.5086 467.423C111.284 480.263 118.687 500.359 118.687 500.359C118.687 500.359 97.2282 499.626 79.4975 486.786C61.7668 473.946 54.3187 453.842 54.3187 453.842C54.3187 453.842 75.7421 454.574 93.5086 467.423Z" fill="#5B67CA"/>
<path d="M54.3187 453.842C54.3187 453.842 76.5468 466.172 83.682 476.376C90.8172 486.581 118.687 500.359 118.687 500.359" stroke="#535461" stroke-width="2" stroke-miterlimit="10"/>
<path d="M144.51 499.34C124.097 521.759 119.778 551.058 119.778 551.058C119.778 551.058 148.56 543.999 168.956 521.571C189.351 499.144 193.687 469.854 193.687 469.854C193.687 469.854 164.923 476.922 144.51 499.34Z" fill="#5B67CA"/>
<path d="M193.705 469.863C193.705 469.863 167.114 492.844 160.354 508.678C153.594 524.511 119.778 551.058 119.778 551.058" stroke="#535461" stroke-width="2" stroke-miterlimit="10"/>
</g>
<defs>
<linearGradient id="paint0_linear_4:503" x1="416.246" y1="746.598" x2="416.246" y2="230.45" gradientUnits="userSpaceOnUse">
<stop stop-color="#808080" stop-opacity="0.25"/>
<stop offset="0.54" stop-color="#808080" stop-opacity="0.12"/>
<stop offset="1" stop-color="#808080" stop-opacity="0.1"/>
</linearGradient>
<linearGradient id="paint1_linear_4:503" x1="170135" y1="483713" x2="170135" y2="145403" gradientUnits="userSpaceOnUse">
<stop stop-color="#808080" stop-opacity="0.25"/>
<stop offset="0.54" stop-color="#808080" stop-opacity="0.12"/>
<stop offset="1" stop-color="#808080" stop-opacity="0.1"/>
</linearGradient>
<clipPath id="clip0_4:503">
<rect width="1044" height="771" fill="white"/>
</clipPath>
</defs>
</svg>
